<svg xmlns="http://www.w3.org/2000/svg" viewBox="0 0 1070 1172"><g stroke-width="2" fill="none"><path stroke="#fbfcf7" vector-effect="non-scaling-stroke" d="M37.04 469c-1.76 1.37-9.08.76-11.34.79q-2.65.03-2.54 2.68l.69 18.11a.71.71 0 0 0 .82.68l3.01-.47a1.01.99-26.7 0 1 .84.27l2.77 2.69"/><path stroke="#a0b5a2" vector-effect="non-scaling-stroke" d="M31.29 493.75c-10.67 61.43-10.95 119.91.17 181.25"/><path stroke="#fbfcf7" vector-effect="non-scaling-stroke" d="M31.46 675c-4.25.58-8.51 2.07-8.46 7.25q.08 9.22-.17 17.93a.94.94 0 0 0 1.36.86c2.82-1.4 10.23-3.3 12.85-1.04"/><path stroke="#a0b5a2" vector-effect="non-scaling-stroke" d="M37.04 700q.45 3.28 1.25 6.49c28.86 116.41 101.45 220.46 200 288.24 39.77 27.35 84.16 49.87 130.27 64.24q27.77 8.66 43.94 12.28c27.54 6.15 53.8 8.99 78.82 10.88 35.99 2.72 71.82.1 104.93-4.4q26.82-3.64 56.4-12.18 32.72-9.45 40.57-12.29 13.4-4.83 42.81-18.5c72.4-33.66 136.57-86.93 184.51-150.71q61.29-81.55 85.98-181.54.12-.49.44-2.76"/><path stroke="#fbfcf7" vector-effect="non-scaling-stroke" d="M1006.96 699.75q5.36-1.25 10.89-.34a1.28 1.27 6.3 0 0 1.48-1.18q.55-9.41-.51-18.69-.3-2.62-2.88-3.21l-3.65-.83"/><path stroke="#a0b5a2" vector-effect="non-scaling-stroke" d="M1012.29 675.5q6.01-33.58 6.98-54.75.77-16.84.13-64.01c-.28-20.86-3.29-41.95-6.86-62.49"/><path stroke="#fbfcf7" vector-effect="non-scaling-stroke" d="m1012.54 494.25 3.86-1.21q2.87-.89 2.86-3.9l-.06-16.01q-.01-2.37-2.29-2.99l-5.36-1.48q-.51-.14-1.02-.02-2.14.46-3.74-1.14"/><path stroke="#a0b5a2" vector-effect="non-scaling-stroke" d="M1006.79 467.5C960.29 275.57 805.91 129.87 612.1 93.51c-37.61-7.06-70.26-6.87-111.04-6.76q-11.05.03-19.97.69c-35.23 2.57-67.07 8.66-101.25 18.47q-9.93 2.84-19.06 6.04C256.46 148.51 167.8 215.88 106.22 308.22q-47.52 71.26-68.9 157.35-.36 1.44-.28 3.43"/><path stroke="#9bb29a" vector-effect="non-scaling-stroke" d="m1006.79 467.5.02 1.19a.54.53-.5 0 1-.54.54l-125.96.01a1.98 1.98 0 0 1-1.88-1.36c-36.82-112.03-124.3-201.13-236.21-238.8-26.52-8.93-48.39-13.87-73.38-16.84-24.03-2.84-50.27-3.26-76.52-1.63-22.57 1.39-41.25 5.41-61.78 9.41q-6.06 1.18-33.43 10.7c-100.59 35.01-183.1 113.39-222.94 212.7q-4.42 11.02-9.42 25.41a.62.61 9.1 0 1-.59.42H38.49q-.36 0-.66-.18-.38-.21-.79-.07m975.5 25.25-.6-1.78a.68.67 81.1 0 0-.64-.47l-125.08-.01a.42.42 0 0 0-.41.52c7.19 29.02 10.82 58.62 10.59 88.5-.09 11.81.01 24.55-.86 35.4-1.6 20.25-5.19 40.02-9.72 59.81a.37.37 0 0 0 .38.46c8.33-.4 19.34.05 24.9.06q49.79.04 99.59.01 1.51 0 1.6-1.25m-5.33 24.25c-42.33-.46-84.76.56-127.06-.31a1.12 1.11-79.6 0 0-1.06.74c-15.32 42.82-34.53 82.16-63.41 117.56-22.85 28.02-44.97 49.49-74.24 70.99-46.66 34.28-99.55 55.08-156.09 65.35q-9.71 1.76-19.8 2.6-40.51 3.38-81.13.61-14.87-1.02-32.74-4.69c-28.97-5.94-57.16-14.05-83.41-26.04-37.98-17.34-69.07-37.91-99.98-65.97-38.57-35.01-69.79-79.03-90.29-126.83q-8.58-19.99-12.68-33.7a.68.68 0 0 0-.65-.49q-60.95.48-121.92-.16-2.38-.02-5.46.59m-5.58-25q.4 2.6 3 1.98.95-.23 1.93-.23h120.78a.63.63 0 0 1 .61.46l5 16.76q.13.43.06-.01-.93-6.57-2.13-9.7-2.37-6.18-4.12-13.83c-3.98-17.42-6.91-34.38-8.06-52.15-2.98-46.17-.92-92.33 11.99-134.48q2.86-9.36 3.56-13.01.01-.05 0-.01l-6.18 20.44a1.14 1.13-81.2 0 1-1.08.8l-124.42-.06a.85.85 0 0 0-.72.4q-.34.56-.39 1.39M518 150.07q6.25.09 12.46-.36c12.9-.94 20.93-10.4 20.09-23.16-1.5-22.61-25.45-19.95-40.96-19.43a.52.52 0 0 0-.5.52c-.16 22.15-.36 44.47-.97 66.64a.65.64-89.1 0 0 .63.66l7.89.12a.52.52 0 0 0 .53-.51l.31-23.98a.51.51 0 0 1 .52-.5m-80.98-37.52c-5.12 24.7-10.73 49.2-15.87 73.71a.48.47 2.1 0 0 .53.56l7.6-1.11a.9.89-88.1 0 0 .74-.7l3.56-17.9a.71.7 89.5 0 1 .53-.55q12.5-2.92 25.18-4.84a.77.77 0 0 1 .77.35l9.22 14.73a2.03 2.02-21.6 0 0 2.12.91l8.12-1.7a.43.43 0 0 0 .27-.66q-20.37-30.91-40.82-61.76-.63-.96-1.48-1.29a.35.34 16.7 0 0-.47.25m180.41 55.8a.4.4 0 0 1 .31.33l2.79 17.98a.4.4 0 0 0 .29.33l9.64 2.52a.4.4 0 0 0 .49-.46l-14.27-74.73a.4.4 0 0 0-.72-.15l-43.51 62.49a.4.4 0 0 0 .27.62l8.12 1.34a.4.4 0 0 0 .39-.17l10.32-15.39a.4.4 0 0 1 .42-.17l25.46 5.46m-246.364-34.697a.62.62 0 0 0-.797-.366l-7.39 2.734a.62.62 0 0 0-.367.796l23.182 62.67a.62.62 0 0 0 .797.366l7.39-2.734a.62.62 0 0 0 .367-.796l-23.182-62.67M691 140.368a.53.53 0 0 0-.299-.688l-7.387-2.91a.53.53 0 0 0-.688.299L658.1 199.333a.53.53 0 0 0 .299.687l7.387 2.91a.53.53 0 0 0 .688-.299L691 140.368m42.25 18.622-34.3 57.79a.61.6-60.1 0 0 .22.83l6.77 3.86a.56.55 30.6 0 0 .75-.19l12.6-20.8a.57.56-58.3 0 1 .78-.19l8.56 5.36q1.44.9 1.49 2.59l.7 26.53q.05 1.71 1.56 2.51l7.05 3.72a.45.45 0 0 0 .66-.41l-.88-30.29a.63.62-1.8 0 1 .61-.64q10.69-.37 17.36-9c9.99-12.9 3.42-26.06-9-33.36q-7.24-4.26-14.09-8.51a.61.6 31.1 0 0-.84.2m-403.11 67.99c20.84-13.22 19.55-41.34.8-55.48-18.95-14.29-38.25-2.14-54.97 8.58a.94.93-31.2 0 0-.31 1.25l33.12 57.15a.89.89 0 0 0 1.2.34q10.18-5.52 20.16-11.84"/><path stroke="#9bb29a" vector-effect="non-scaling-stroke" d="M518.08 116.38c-.15 8.1-.59 16.29-.28 24.37a.52.51-1.1 0 0 .52.49c9.33-.14 22.94.85 23.03-12.56.09-14.23-12.99-13.26-22.76-12.83a.54.53 89.4 0 0-.51.53m-82.42 41.19a.41.41 0 0 0 .48.48l18.31-3.33a.41.41 0 0 0 .27-.62l-13.38-21.62a.41.41 0 0 0-.76.13l-4.92 24.96m161.38-2.34a.35.35 0 0 0 .21.54l18.21 4.17a.35.35 0 0 0 .42-.4l-3.85-25.03a.35.35 0 0 0-.63-.15l-14.36 20.87m139.77 15.41c-3.32 6.96-8.41 14.03-12.44 20.88a.89.88 33 0 0 .25 1.16q5.1 3.71 11.25 6.38c6.82 2.96 14.09-1.7 16.17-8.14 3.66-11.35-8.17-15.9-14.83-20.39a.27.27 0 0 0-.4.11m-409.24 46.93q11.42-11.16 7.11-25.51c-2.79-9.3-11.1-16.79-20.74-18.16-9.25-1.33-18.24 4.36-25.67 8.9a1.1 1.1 0 0 0-.37 1.5l24.71 42.5a.59.59 0 0 0 .83.2l10.72-6.75q1.85-1.16 3.41-2.68"/><path stroke="#abc8ae" vector-effect="non-scaling-stroke" d="M876.67 584.39a354.85 354.85 0 0 0-354.85-354.85 354.85 354.85 0 0 0-354.85 354.85 354.85 354.85 0 0 0 354.85 354.85 354.85 354.85 0 0 0 354.85-354.85m3.287-113.33a.22.22 0 0 0-.27-.155l-.019.005a.22.22 0 0 0-.155.27l4.71 17.58a.22.22 0 0 0 .27.155l.019-.005a.22.22 0 0 0 .155-.27l-4.71-17.58"/><path stroke="#fbfcf7" vector-effect="non-scaling-stroke" d="M884.443 681.492a.26.26 0 0 0-.191-.314l-.37-.09a.26.26 0 0 0-.313.192l-3.452 14.268a.26.26 0 0 0 .191.314l.37.09a.26.26 0 0 0 .313-.192l3.452-14.268"/><path stroke="#b0ccb6" vector-effect="non-scaling-stroke" d="M189.22 636.83c16.51 105.25 80 195.87 174.2 246.27 39.26 21 84.28 35.18 128.82 37.84 49.72 2.97 95.37-.71 142.43-17.84 116.07-42.26 199.57-141.63 219.46-264.38q1.93-11.91 2.36-23.97c1.37-38.11 1.4-75.58-8.46-112.71-36.89-138.99-157.21-241.12-301.72-251.32-174.12-12.3-328.68 109.05-356.61 281.39-4.48 27.63-4.63 56.99-2.7 84.84q.7 10.21 2.22 19.88"/><path stroke="#b0ccb6" vector-effect="non-scaling-stroke" d="M593.46 471.75q.21-1.74-.67-3.25"/><path stroke="#a0b5a2" vector-effect="non-scaling-stroke" d="m592.79 468.5-2.25-7.35q-.46-1.5 1.01-.92l6.79 2.69a.53.53 0 0 0 .72-.38c1.65-7.72 7.81-11.32 13.68-15.69a.49.49 0 0 0 .1-.7c-1.32-1.66-4.89-2.48-5.01-4.52a.86.86 0 0 1 .43-.78c5.28-3.08 11.08-2.94 15.93-4.36q.76-.22.7-1.04a.85.84 9.3 0 0-.52-.71c-8.01-3.25-19.36-9.1-18.03-18.82a1.72 1.71-89.6 0 1 1.49-1.47l5.95-.72a.86.85-6.5 0 0 .75-.94q-.67-5.79-2.72-11.15c-2.4-6.24-8.42-9.23-10.7-15.59-1.59-4.45-3.39-6.67-6.83-8.43q-2.16-1.11-3.58.86c-4.86 6.79-12.22 5.86-17.84.78q-1.77-1.6.54-2.23 6.59-1.78 11.82-6.05a1.13 1.12 31.5 0 1 .98-.23l5.03 1.19q1.99.47 2.94-1.34c1.35-2.59 4.26-8.88 8.26-6.75q4.01 2.12 8.13 4.24 3.22 1.67 1.92-1.72c-2.08-5.44-4.76-11.39-5.73-17.61q-.38-2.44 1.82-3.56l5.57-2.84q1.98-1.01.36-2.54-6.66-6.3-13.6-7.53c-5.49-.98-9.53-2.23-11.67-7.73-1.82-4.7-6.08-6.66-9.95-9.22a1.08 1.08 0 0 1-.48-.84l-.2-5.21a.71.71 0 0 0-.57-.67c-20.77-3.98-36.16-11.56-54.2-19.31q-2.35-1.01-1.03-3.2 2.07-3.44 5.73-3.94c5.63-.78 10.87 8.08 16.22 3.5q2.28-1.94 4.59-4a1.41 1.41 0 0 1 .87-.37c11.09-.8 23.2-1.44 34.12.94 6.5 1.41 12.18 2.06 19.05.73q16.81-3.27 34.36 1.34 3.04.8.9 3.1c-2.81 3.04-8.31 6.22-12.87 5.68q-10-1.2-20.01-2.23-2.75-.28-5.54.04-.51.06-.07.32c6.68 3.93 15.49 4.06 22.62 4.92q3.42.42 5.88 2.84c4.82 4.73 10.82 10.83 17.22 13.19q11.33 4.19 25.58 11.17.79.39 1.2-.38a.79.79 0 0 0-.08-.87c-1.38-1.72-12.3-11.54-4.58-13.09q11.39-2.28 22.02 2.41c1.26.56 1.69 1.74.33 2.6"/><path stroke="#b0ccb6" vector-effect="non-scaling-stroke" d="m690.34 314.01-6.09.03"/><path stroke="#a0b5a2" vector-effect="non-scaling-stroke" d="m684.25 314.04-2.55.05a.42.41 78.1 0 0-.37.57c.89 2.26 10.22 3.09 12.45 3.84 11.86 3.98 27.71 11.37 35.84 21.19q7.49 9.07 16.33 16.87c2.65 2.34 9.18 1.2 5.32-2.6-105.1-103.69-266.65-123.63-394-49.62-2.05 1.19-4.35 2.09-6.53 3.11a.72.72 0 0 0-.4.76q.1.64.95.66c13.81.41 24.06-8.5 37.8-11.68q5.13-1.19 10.18-2.85 14.05-4.6 28.85-5.02c11.25-.31 27.88-3.24 36.88-10.2 2.38-1.83 3.66-4.65 5.56-7.09a1 1 0 0 1 .87-.39l7.67.57q1.72.13 3.29-.59 8.15-3.75 16.78-6.67c1.27-.43 8.57-1.8 9.4-.64a.95.94-25.7 0 1-.51 1.45c-1.7.49-14.15 4.16-14.43 5.11a.5.5 0 0 0 .4.63c2.2.39 20.9 1.69 19.1 6.99-.91 2.69-7.54 3.71-7.62 6.19a.54.54 0 0 0 .5.56c3.59.32 11.15-.85 13.74 2.36a.41.41 0 0 1-.2.65l-7.55 2.41a.69.68 85.3 0 0-.47.56l-.05.35a.53.52 11.7 0 0 .39.58q2.65.71 3.17 3.31a1 .99 63.5 0 1-.3.91c-7 6.46-13.49 9.22-22.76 9.75-11.26.65-20.98 3.28-32.72 6.67-3.41.99-5.34 1.27-7.27 4.53-4.06 6.86-11.12 9.69-19.41 12.88a.56.56 0 0 0-.33.69c.64 2.09 5.53 1.32 7.39.97 4.2-.81 8.4-3.79 12.31-5.85a1.44 1.42 38.1 0 1 1.03-.12q4.55 1.19 6.79 5.37 1.23 2.3-.99 3.66-8 4.9-16.88 8.11a2.28 2.26 82.7 0 0-1.48 1.93q-.34 3.88-3.42 5.87-1.79 1.15-.75 3.01l1.65 2.94a1.21 1.2 39.1 0 1 .1.94q-1.68 5.57-4.66 10.59-1.16 1.97-3.12.78l-7.38-4.49a.96.95-41.6 0 0-.89-.05c-3.94 1.77-17.69 8.45-17.39 11.79a.86.86 0 0 0 .52.71c3.23 1.37 6.51-2.56 8.98-4.86 4.75-4.42 11.88-3.52 16.95-.66a1.15 1.13 8.7 0 1 .55.74c1.1 5 .51 10.33-3.47 13.91-7.82 7.07-13.31 15.55-21.75 22.21-4.44 3.5-4.34 7.28-5.86 13.08q-.74 2.87-3.28 3.31a1.11 1.09 58 0 1-.84-.2q-3.31-2.41-7.35-1.28a1.02 1.02 0 0 1-.93-.21c-.59-.5.99-6.36.68-8.04q-.11-.6-.38-.05l-5.71 11.8a1.9 1.9 0 0 1-1.52 1.07l-9.51.99q-3.26.34-2.61-2.87 1.03-5.1 2.64-11.02c.95-3.46 7.1-7.86 6.78-11.53q-.36-4.06-.83-8.19a.64.63-13.2 0 1 .42-.67c3.26-1.15 7.8 3.98 9.7 6.03q1.38 1.5 2.94.18c4.28-3.61 14.48-11.45 15.78-16.53q.6-2.36-1.55-1.23c-1.96 1.03-3.47 2.2-5.76 2.36q-4.93.34-9.91.37a1.57 1.57 0 0 0-.96.35q-5.07 4.14-11.24 6.38a1.56 1.54-45.3 0 1-1.04.01c-1.79-.59-2.88-1.95-2.89-3.94q-.02-6.84 6.77-9.27 1.28-.45.23-1.32c-5.28-4.39-11.37-8.07-18.61-6.53q-6.89 1.47-13.19 6.44c-2.23 1.76-3.27 4.41-4.38 6.95-2.77 6.34-6.92 11.69-9.01 18.11q-.96 2.96-3.89 4.02c-6.07 2.19-13.81 3.42-13.88 11.65a.84.83-13.1 0 0 1.21.75l12.94-6.42a2.32 2.3-42.7 0 1 2.19.08c7.94 4.64 11.32-.48 15.42-6.12 1.98-2.72 6.56-3.29 8.84-4.16q5.31-2 10.13-3.99 2.2-.91 2.93 1.37c1.03 3.18 2.05 7.33.22 10.45q-3.88 6.6-7.12 13.66a.93.9-81.4 0 1-.7.53c-3.64.57-10.36 4.8-7.76 9.19a.72.72 0 0 0 .76.34c2.58-.49 9.09-3.83 11-2.67a1.07 1.06 33.9 0 1 .31 1.55q-9.27 12.45-19.61 24.03-1.31 1.46-1.92 3.32c-3.65 11.17-4.92 24.31-18.25 28.04a1.06 1.05-20.7 0 0-.67 1.47c1.36 2.82 2.88 5.95 1.95 9.22-1.12 3.93-3.99 11.65-8.93 11.94a1.34 1.34 0 0 1-1.43-1.32l-.09-6.56a1.7 1.67-63.4 0 0-.32-.99q-4.28-6.09-7.08-13.01a1.15 1.14-21.6 0 1 .65-1.5l17.47-6.66q1.64-.63-.05-1.1l-4.93-1.4a2.23 2.23 0 0 1-1.57-1.62q-2.45-9.75-9.83-16.59a.8.79-38.1 0 0-.95-.11l-.66.39a.68.67 60.5 0 0-.25.91l2.8 5.11q1.2 2.18-.95 3.42l-7.9 4.56q-3.04 1.75-.99 4.59 2.21 3.06 5.02 6.4c3.25 3.85.85 11.66-5.41 6.92q-6.68-5.06-14.69-7.84a2.11 2.11 0 0 1-1.4-2.26c.37-3.03 6.49-3.35 8.91-4.17q.57-.19.07-.52l-10.49-6.87a.82.82 0 0 0-1.18.31l-2.77 5.35q-1.98 3.84-4.12.08l-3.57-6.26q-.91-1.62-2.76-1.44-5.77.54-11.14 2.71a1.47 1.46-86.9 0 0-.74.67q-2.7 5.1-7.79 3.71c-3.1-.85-5.81-4.92-8.39-7.15a.49.49 0 0 0-.72.09l-15.12 21.92a3.76 3.72-77.7 0 1-2.39 1.55l-1.05.19a.59.59 0 0 1-.69-.56q-.44-11.5 6.43-20.6c5.18-6.88 6.9-12.77 7.44-21.82q.72-11.97 5.09-23.19.25-.64-.18-2.4a.43.43 0 0 0-.59-.3c-8.41 3.53-18.14 29.07-22.01 38.21q-.61 1.44-.52 3c.22 4.13.14 10.6-2.99 13.98q-6.21 6.7-7.07 13.99-1.27 10.83-2.16 12.74-3.24 6.94-4.65 13.42-3.86 17.77-5.75 37.57c-.67 7.06 3.35 9.93 6.88 14.75q1.03 1.39 1.13 3.13.89 15.23 2.88 30.09c.73 5.4 5.05 10.64 8.36 14.84a1.59 1.57-66.2 0 1 .34.89c.43 7.2-.49 15.02 1.05 21.99 4.08 18.56 7.13 28.67 15.26 44.81 2.81 5.59 3.28 13.23 4.26 19.39a1.27 1.26 61.2 0 1-.29 1.02l-2.33 2.72a.6.59-42.9 0 0-.03.74c.87 1.16 2.11 1.86 2.9 2.99q7.29 10.32 13.82 21.14 3.93 6.5 6.37 9.58c5.06 6.4 12.46 12.68 16.62 17.52 7.97 9.28 17.01 20.09 18.27 32.92a1.45 1.45 0 0 1-1.23 1.57l-7.95 1.16q-3.6.53-2.71 4.05c.66 2.65 2.33 6.09 4.4 8.28 70.5 74.54 170.44 111.08 272.48 100.24q1.61-.17.19-.96c-4.63-2.57-8.7-4.62-14.3-6.67-19.46-7.14-8.3-16.13.15-24.46a1.17 1.15 58.1 0 0 .27-1.2c-2.41-6.69-7.19-19.75-14.42-22.27-4.32-1.5-10.76-2.98-12.32-6.52-1.25-2.83 2.73-11.77 3.79-14.84q3.19-9.18-5.57-12.25-2.18-.76-4.27.2l-8.95 4.14q-2.27 1.05-3.57-1.1c-3.03-5.02-5.58-10.14-12.61-10.21q-5.04-.05-20.84 2.28c-7.61 1.12-12.24-.88-20.64-3.61-7.81-2.55-17.13 1.54-24.66-1.59-7.92-3.29-17.4-13.85-23.03-20.33-3.67-4.23-3.7-14.58-9.38-16.95q-11.83-4.95-12.22-17.97c-.23-7.73 8.34-10.71 9.13-18.38q.43-4.23.42-8.5c-.02-6.38-7.44-10.78-.1-17.45q9.56-8.69 19.75-17.72 2.05-1.83 4.8-1.88 4.99-.09 10.43-2.41c8.96-3.83 4.2-17.42 10.32-19.72q2.99-1.12 11.13-1.59a1.3 1.29-71.1 0 0 .91-.45l7.53-8.66a1.25 1.24 59.9 0 0 .28-1.06l-.71-3.65a1.31 1.31 0 0 0-.74-.94l-9.08-4.18a.84.84 0 0 1-.48-.67l-.96-10.55a1.17 1.15 63.9 0 1 .3-.9c5.29-5.8 3.26-11.42 2.59-18.02-.77-7.6 5.12-8.72 10.77-6.34q10.14 4.25 21.32 6.43a1.83 1.83 0 0 0 2.1-1.25l3.38-10.73a1.86 1.84 32.8 0 0-.4-1.8l-12.14-13.33a1.13 1.11 30.2 0 1-.27-.99c1.33-6.44 14.52-.09 11.92-7.39a.67.67 0 0 1 .37-.84l1.31-.54a.8.79 62.6 0 1 .98.32q1.64 2.63 4.1 1.97c5.94-1.6 10.27-7.43 15.01-10.83 3.75-2.69 5.84-5.45 8.38-8.97a1.68 1.62-79.7 0 1 .86-.62q3.81-1.13 7.78-.82a1.21 1.21 0 0 0 1.28-1.42c-1.75-9.46-3.24-17.33 7.59-21.71a.59.58 66 0 1 .75.29q1.19 2.61.31 5.41a1.54 1.52-47.7 0 0 .04 1.02q1.29 3.21 4.84 3.13a1.12 1.08 67.5 0 1 .83.36c2.88 3.23.38 8.64-3.58 9.6q-.48.11.01.11 1.86-.01 3.59-.87.45-.23.95-.21c9.58.24 16.55-2.57 25.09-5.38a1.73 1.72-20.8 0 0 1.05-2.32q-2.26-5.29-3.02-10.98a1.5 1.5 0 0 1 1.5-1.7l8.44.07q.67.01.25-.52l-4.88-6.09a1.58 1.58 0 0 1 .43-2.35l13.49-7.93a.57.56 61 0 0 .21-.74l-.25-.5a1.31 1.31 0 0 0-1.78-.57l-12.65 6.71q-1.99 1.06-3.18-.85c-2.79-4.49-6.39-11.52-3.97-16.8q3.1-6.76 6.1-12.82a2.28 2.27 36.8 0 0-.37-2.55q-1.69-1.83-4-1.45a1.02 1-83.8 0 0-.79.65q-1.08 2.95-1.65 6.07c-1.23 6.71-12.98 13.36-7.55 20.49q2.69 3.53 5.32 7.2a.94.93 39.3 0 1 .1.93q-1.22 2.74-3.67 4.36a2.9 2.88 74.5 0 0-1.31 2.33l-.35 11.64q-.05 1.69-1.33 2.8l-6.76 5.84a1.1 1.08-59 0 1-.93.24l-1.65-.37a1.1 1.09 85.8 0 1-.78-.68c-.98-2.66-1.27-5.72-2.14-8.11q-1.99-5.43-4.88-10.76a1.25 1.25 0 0 0-1.96-.31c-2.4 2.29-8.69 8.84-11.79 4.31-4.34-6.34-10.09-22.65-1.72-28.4 1.86-1.28 4.7-1.73 6.86-2.24q2.39-.56 3.61-2.68 6.53-11.3 10.02-23.73c3.11-11.06 14.73-18.71 25.45-21.35q2.07-.51 3.28 1.24 1.71 2.46 4.23 3.93a2.01 2.01 0 0 0 1.06.28q10.82-.11 21.28 2.63c7 1.83 3.9 8.88 1.15 12.75a1.5 1.5 0 0 1-.89.6q-5.21 1.18-10.53.31-3.17-.52-.71 1.55 4.3 3.62 9.05 6.56 1.59.98 2.99-.25c4.47-3.95 5.83-13.08 5.66-18.81"/><path stroke="#508258" vector-effect="non-scaling-stroke" d="M684.25 314.04q3.1.96 6.09-.03M592.79 468.5q-.57 1.93.67 3.25"/><path stroke="#a0b5a2" vector-effect="non-scaling-stroke" d="M409.05 355.5c.33 3.66 4.79 4.52 7.64 4.3 4.15-.33 10.11-4.21 13.9-6.47q3.91-2.33-.63-2.71c-5.62-.46-14.84 2.8-20.46 4.25a.6.59 80.9 0 0-.45.63m356.73 24.74q.06-3.59 2.46-.92c4.78 5.35 7.73 11.4 14.89 13.67a.3.3 0 0 0 .38-.35c-1.1-5.2-9.72-14.14-14.42-19.81a1.66 1.65-10.5 0 0-.78-.53l-9.42-3.01q-1.37-.44-.78.87l8.18 18.1q.28.62.41-.05c.45-2.35-.95-6.07-.92-7.97m-7.87 274.56c-.22 3.38-1.43 6.71-1.6 9.81q-.34 6.45-.52 12.36-.05 1.66-.93 3.08-9.83 15.85-19.33 30.55c-8.71 13.47-19.11 24.57-30.36 35.92q-1.63 1.64-3.63.48c-2.09-1.22-5.07-10.52-6.1-13.1-2.18-5.45-8.34-11.08-13.73-13.26-6.2-2.52-9.06-8.45-14.07-13.85a1.44 1.42 73.4 0 0-.84-.46c-7.55-1.24-12.21-9.17-17.13-14.31-2.93-3.06-5.22-3.15-9.09-2.03a.8.8 0 0 0-.51 1.11c2.12 4.6 9.3 10.67 13.14 14.16a1.01.98 25.3 0 1 .32.85l-.47 4q-.25 2.19 1.86 2.84c8.85 2.72 9.46 5.44 10.3 14.06a1.38 1.38 0 0 0 .41.85c1.28 1.26 3.21 1.82 4.45 2.85q4.64 3.89 9.51 7.58 1.82 1.38 4.07 1.82c8.69 1.67 12.65 4.46 18.54 10.94q1.3 1.43 3 .51c10.02-5.42 21.41-13.16 27.49-23.03q1.73-2.81 3.13.17c2.8 5.93.38 18.05-2.23 24.1-5.15 11.94-11.11 24.63-19.49 34.68q-12.89 15.45-25.41 31.2c-5.85 7.34-4 14.7-2.12 23.99 3.53 17.41-22.43 23.17-30.36 33.26q-5.46 6.95-12.65 12.11-.55.39-.76.88-.24.53.3.32 20.92-8.43 40.56-19.5c7.07-3.98 13.92-14.32 15.71-22.51a1.08 1.08 0 0 1 .55-.74c6.76-3.72 12.98-7.9 17.75-14.25q4.03-5.36 8.65-10.3 1.78-1.9 3.04.39c3.8 6.94-4.55 15.7-10.49 22.93a.29.29 0 0 0 .14.46q.25.07.55-.16c91.26-70.25 137.32-177.2 127.09-292.33-.18-2.08-1.98-9.73-4.93-9.18a.65.64 86.1 0 0-.53.61c-.03 1.09.63 5.52-.22 6.02a.78.77-41.3 0 1-.86-.05c-1.93-1.47-7.52-7.53-9.49-7.39q-1.92.15-2.26 2.04-1.42 7.94-1.25 15.72.5 22.61-1.3 45.13c-.56 7.01 2.61 14.81 3.28 21.53.75 7.48 1.33 19.09-1.29 26.22a1.02 1.02 0 0 1-1.6.45c-12.2-9.73-19.19-20.02-28.97-35.46q-.44-.69-.58.12-.83 4.71-3.56 8.59-1.07 1.51-2.74.73c-5.66-2.61-9.39-4.65-15.92-4.78a3.2 3.19-68.7 0 0-2.46 1.08c-7.84 8.88-18.05 19.21-28.54 24.78a1.15 1.15 0 0 1-1.35-.2l-3.9-3.87a.51.5 39.1 0 0-.78.08c-.67 1 3.86 8.12 4.61 9.56a1.22 1.22 0 0 0 1.49.59q6.81-2.36 13.99-1.27a.5.49 6.4 0 1 .42.52m-197.56-13.76-5.16.78a.72.71-7.1 0 0-.61.78q.8 8.01-4.77 13.62a1.24 1.21-24.6 0 0-.36.93c.22 3.97.74 7.72-5.01 6.39q-5.27-1.22-9.79-4.27-3.65-2.47.14-4.7c4.87-2.87 12.73.55 13.21-8.62a1.37 1.36-61.8 0 0-.27-.9c-4.03-5.32-12.32-4.39-16.53-10.73q-4.02-6.03-8.41-12.03-1.77-2.42-4.27-.76l-6.68 4.41q-2.58 1.7-5.41.45c-2.04-.91-8.77-5.72-9.71-.83-1.04 5.4-2.26 6.81-7.19 9.67q-4.18 2.43-8.3 4.87a2.65 2.65 0 0 0-1.21 1.62c-1.44 5.64-4.44 11.47-10.19 13.6q-7.65 2.83-15.77 3.3-.52.03-1 .25l-2.54 1.16q-.33.15.02.27c5.19 1.7 9.7 5.28 15.57 2.87 4.65-1.91 9.73-4.49 14.86-4.44q21.28.2 42.6-.77a1.16 1.15 75 0 1 1.07.62c1.53 2.97 5.37 8.65 3.92 12.03-.66 1.53-2.23 2.4-3.37 3.78a1.14 1.11 61.5 0 0-.25.88c1.16 7.94 10.78 5.92 16.12 5.68q2.19-.1 3.57 1.61l5.11 6.35a1.4 1.37-14.6 0 0 .89.51q4.28.62 8.57 1.21c2.9.41 5.14 1.95 7.57 3.29a1.11 1.1 16.1 0 0 1.64-.9c.16-2.83-.33-6.16.78-8.61 2.29-5.09 10-6.81 14.84-8.41a1.11 1.11 0 0 1 1.34.54l1.59 2.99a1.27 1.25 83.3 0 0 .8.64c3.71 1.02 7.26-.09 10.55.12 7.68.49 15.42.83 22.52-2.6 4.42-2.13 9.16-2.79 13.58-4.52q2.09-.82 2.62-3c1.35-5.47 3.49-11.83 3.13-17.28-.11-1.71-.98-8.2-2.13-9.21q-1.59-1.39-3.19-.02c-3.49 3-7.07 8.98-12.26 5.21a1.7 1.7 0 0 0-2.37.37l-3.65 4.98q-1.58 2.15-4.1 1.25-6.4-2.32-12.92-3.49c-7.66-1.38-5.22-8.78-5.88-14.21a2.05 2.05 0 0 0-1.39-1.71c-2.49-.85-9.12-1.08-10.41 2.09-1.24 3.09 5.95 3.96 6.5 7.66.47 3.08-4.35 9.14-6.11 11.85a1.27 1.23-78.9 0 1-.76.53c-4.38 1.07-6.79-.9-9.26-4.61q-4.57-6.86-9.51-13.53a1.48 1.47-53.1 0 1-.19-1.39l1.81-4.77q.92-2.41-1.61-2.91c-4.58-.91-11.42-2.5-14.42-6.35q-4.1-5.24-8.32-10.4-1.78-2.18-4.47-1.34a1.04 1.04 0 0 0-.66.62c-2.08 5.35 4.02 7.29 6.77 9.85a1.16 1.14-69.1 0 1 .37.85v4.01a.77.77 0 0 0 .47.71q11.58 5.01 16.06 7.76 1.46.89 2.29 3.6a.58.58 0 0 1-.47.75"/><path stroke="#a0b5a2" vector-effect="non-scaling-stroke" d="M703.31 651.26c-6.15 7.79 13.34 12.48 17.06 12.71a.81.8 82.6 0 1 .72.56l1.23 3.81a1.24 1.23 70 0 0 1.64.77c8.96-3.67 10.82-11.3 11.31-20.1q.03-.49-.24-.08-5.31 8.13-15.21 6.31c-4.1-.76-11.47-10.35-16.51-3.98M467 385.78l-15.21-.89a3.94 3.9 29.8 0 0-2.4.64q-4.85 3.18-3.86 8.61.52 2.86.33 3.79c-1.79 8.91-19.23 18.92-26.48 23.18q-1.68.98-1.82 2.92l-.21 2.93a.92.91-8.6 0 1-.59.79q-6.66 2.6-13.17 5.78c-6.59 3.22-13.64 17.42-16.34 24.09-2.5 6.17-.5 13.7-.01 20.18a.44.43 74.3 0 0 .63.36q8.77-4.55 17.64-9.19c4.76-2.49 8.24-5.85 12.29-9.28a.64.63 41.1 0 1 .76-.05l8 5.16a2.2 2.2 0 0 0 2.62-.17l6.77-5.72a.7.68 37.5 0 1 .75-.09c8.48 4.19 16.97 1.91 26.93-.01 5.8-1.12 5.29-5.16 6.57-9.75 1.81-6.44 5.57-6.87 10.75-9.43 8.04-3.98 6.88-20.1 15.35-25.58 1.81-1.18 11.1-3.98 9.36-7.38a1.44 1.4-2 0 0-.74-.67l-4.29-1.71a.96.95-81.4 0 1-.6-.83c-.18-2.73 1-5.56.39-7.85-2.18-8.21-17.88-.82-18.67-8.31a1.6 1.52 58.5 0 1 .2-.94c4.62-7.84 1.02-12.39-3.54-18.46-5.41-7.19-14.23-8.62-21-2.72-.89.78-2.46.98-3.07-.14a1.31 1.28-53.5 0 1-.13-.94q1.24-5.33 1.35-14.01.05-4.34 4.33-3.61a.86.83-4 0 1 .65.55q1.01 2.79 3.5 4.35a.61.61 0 0 0 .79-.12q4.51-5.36 1.17-11.24-1.16-2.04-3.45-1.49c-5.1 1.22-9.17 1.66-13.61 4.67q-2.38 1.6-2.6 4.47l-.49 6.35a1.36 1.35 87 0 1-1.1 1.23l-2.23.43a.99.97 5.5 0 0-.72.58q-3.01 7-7.07 13.45a1.76 1.74-30.2 0 0-.27 1c.06 1.86-.43 12.6 3.97 9.76a1.63 1.6 29 0 1 .9-.25c5.77.17 12.35-.35 17.86 1.52 1.37.46 10.67 2.24 10.55 3.41a.7.7 0 0 1-.74.63"/><path stroke="#9bb29a" vector-effect="non-scaling-stroke" d="M590.97 440.86q6.06 2.84 12.81 3.05a.68.67-86.9 0 0 .69-.63l.14-2.13a.7.69-79.6 0 0-.49-.72c-3.58-1.13-8.74-2.95-10.3-6.72q-4.66-11.21-4.9-23.67-.04-1.93-1.92-2.35c-3.98-.9-4.26 14.26-4.54 16.9q-.05.53.16 1.02l5.24 12.05q.95 2.19 3.11 3.2"/><path stroke="#a0b5a2" vector-effect="non-scaling-stroke" d="M535.84 431.46q2.5 1.22 5.11.3a.72.72 0 0 0 .37-1.07l-2.47-3.87a2.34 2.33 42.4 0 1-.11-2.32c.99-1.94 3.71-5.84 1.88-7.74a1.13 1.12 66.5 0 0-.88-.35q-4.96.27-9.43 2.45a1.88 1.81-53.8 0 1-1.02.18c-3.16-.36-9.25-1.89-7.01 4.3 1.39 3.85 6.64 15.23 11.76 14.69a.87.85-79.8 0 0 .68-.48q1.3-2.68.56-5.64-.21-.83.56-.45m-92.57 45.94c.31 8.48-.3 18.22 11.48 18.56 6.55.19 15.46-.34 13.83-9.52-1.07-6.05-7.09-5.15-11.76-5.46a1.93 1.93 0 0 1-1.79-1.75l-.42-4.51a1.33 1.33 0 0 0-1.75-1.14l-9.04 3.01a.82.81-11 0 0-.55.81"/><path stroke="#9bb29a" vector-effect="non-scaling-stroke" d="M216.62 486.88q-1.82 1.71-2.2 4.18c-2.24 14.49-2.39 29.08-2.88 43.89a.54.54 0 0 0 .49.56c1.98.2 2.87-.77 3.16-2.74 1.34-9.05 3.36-18.42 3.7-27.1q.38-9.89-.13-19.83-.05-.92-.72-.29l-1.42 1.33"/><path stroke="#a0b5a2" vector-effect="non-scaling-stroke" d="M478.21 561.26q-2.14.51-3.91-.77a.49.48 24.5 0 0-.76.28q-1.04 4.67-4.52 8a.61.61 0 0 0 .03.91l1.91 1.56q1.55 1.27.07 2.62c-1.62 1.49-5.18 3.34-5.94 5.28q-.79 2.02 1.36 1.67 10.54-1.71 21.25-1.29 2.17.08 3.56-1.59 2.99-3.6 3.74-8.2.36-2.23-1.82-2.8c-1.6-.42-2.61-1.58-2.99-3.32q-1.77-8.1-6.25-16.75a1.57 1.56-38.3 0 1 .21-1.76c2.38-2.69 4.09-6.12-.54-8.53a1.49 1.49 0 0 1-.79-1.48l.53-4.62a.52.51-89.5 0 0-.56-.57c-10.12.92-15.79 2.8-12.22 14.77.9 3.03 1 5.67 1.76 8.57a1.08 1.08 0 0 0 .65.73q4.44 1.76 5.78 6.33a.77.75 75.3 0 1-.55.96"/><path stroke="#9bb29a" vector-effect="non-scaling-stroke" d="m214.41 540.95-2.43-.34a.57.56-81.9 0 0-.64.49c-.91 6.46-2.05 14.48-.08 20.73.34 1.07 2.55 7.79 3.73 7.68a.45.44-2.2 0 0 .4-.43q.45-13.73-.33-27.43a.75.74 2.3 0 0-.65-.7"/><path stroke="#a0b5a2" vector-effect="non-scaling-stroke" d="M449.24 566.85a4.1 4.09-18.3 0 0 2.53 1.27q6.96.8 13.39-1.08c4.48-1.31 4.56-6.11 5.34-9.74 1.11-5.23-1.95-8.87-7.26-9.35a1.49 1.48 30.7 0 0-.92.23c-3.53 2.33-6.58 4.54-8.46 8.58-1.07 2.32-6.35 8.26-4.62 10.09"/><path stroke="#9bb29a" vector-effect="non-scaling-stroke" d="M59.37 605.64q12.95 10.34 25.72 20.16 2.03 1.56 4.08.03 13.67-10.3 26.9-20.99 8.29-6.7 8.03-17.53c-.15-6.24-2.86-12.05-2.64-18.32.22-6.09 3.43-12.31 4.57-17.01a.91.9-61.4 0 0-.24-.84c-5.65-5.68-9.19-8.57-16.54-8.6q-22.85-.09-45.7-.02c-5.93.02-11.18 5.14-15.14 8.94a.84.83 56.2 0 0-.18.93c3.02 6.9 5.73 13 4.94 20.8-.45 4.46-2.77 10.61-2.59 15.5q.39 10.25 8.79 16.95m876.37 7.23q7.7 6.23 15.6 12.2c3.04 2.29 5.08 4.26 8.23 2.27q5.55-3.49 25.92-20.07 9.26-7.53 8.86-18.96c-.14-4.03-1.97-9.34-2.56-14.06-.8-6.42 1.73-13.01 4.3-18.78q.93-2.08-.83-3.51l-6.98-5.68q-1.4-1.13-3.2-1.13-26.21-.03-52.37-.2c-5.19-.03-9.67 3.24-13.35 6.59q-1.88 1.71-.75 3.98 4.06 8.12 4.42 17.36c.13 3.06-.93 6.23-1.67 9.27-3.76 15.49 2.76 21.31 14.38 30.72"/><path stroke="#abc8ae" vector-effect="non-scaling-stroke" d="M56.54 574c-2.2 10.72-5.01 18.02 2.92 27"/><path stroke="#9bb29a" vector-effect="non-scaling-stroke" d="M59.46 601q.82 1.05 2.73 2.57 11.35 9 22.72 18.05c2.41 1.92 3.61.73 5.58-.77q12.08-9.2 21.03-16.59 1.53-1.26 3.48-3.47"/><path stroke="#7d7e78" vector-effect="non-scaling-stroke" d="M115 600.79c8.48-8.42 5.43-17.96 2.46-29.04"/><path stroke="#9bb29a" vector-effect="non-scaling-stroke" d="M117.46 571.75q1.43-8.79 5.31-16.87a1.54 1.53 32.7 0 0-.41-1.85c-3.6-2.98-7.28-7.13-12.36-7.22q-5.37-.1-10.75-.02"/><path stroke="#cda99d" vector-effect="non-scaling-stroke" d="M99.25 545.79h-27"/><path stroke="#9bb29a" vector-effect="non-scaling-stroke" d="M72.25 545.79c-9.79-1-13.36 1.32-20.02 7.81a1.13 1.12 53.3 0 0-.19 1.36q4.97 8.74 4.5 19.04"/><path stroke="#726348" vector-effect="non-scaling-stroke" d="m72.25 545.79-.48.83q-.25.43-.26.93c-.12 5.43-.78 10.91 0 16.21q.55 3.73 1.24 7.45"/><path stroke="#508258" vector-effect="non-scaling-stroke" d="M72.75 571.21q-.56.63-.58 1.57a.43.42 3.1 0 1-.48.42c-5.02-.58-9.52-1.44-13.68 1.18a.66.64-40.4 0 1-.75-.05q-.31-.25-.72-.33"/><path stroke="#726348" vector-effect="non-scaling-stroke" d="M99.25 545.79q2.05 13.54.75 27.17"/><path stroke="#532f26" vector-effect="non-scaling-stroke" d="m100 572.96-13.5.33"/><path stroke="#82795c" vector-effect="non-scaling-stroke" d="M86.5 573.29q-.76 1.23-.6 2.74.05.41-.14.04-2.29-4.51-7.57-3.39-.48.1-.95-.04l-4.49-1.43"/><path stroke="#324e37" vector-effect="non-scaling-stroke" d="m86.5 573.29-.46 14.21"/><path stroke="#508258" vector-effect="non-scaling-stroke" d="m86.04 587.5-.42 9.52q-.13 2.81-2.94 2.93-7.73.35-15.75-.57-4.67-.53-7.47 1.62"/><path stroke="#223723" vector-effect="non-scaling-stroke" d="M117.46 571.75q-8.69 1.17-17.46 1.21m15 27.83q-13.66-1.21-27.49-.74a.53.52-4 0 1-.55-.47c-.35-3.2.17-9.68-.92-12.08"/><path stroke="#9bb29a" vector-effect="non-scaling-stroke" d="M941.5 548.04q-3.44-.17-6.89-.15c-4.38.03-8.71 3.73-11.76 6.6a1.43 1.43 0 0 0-.39 1.46c1.73 5.67 3.91 9.9 3.83 16.55"/><path stroke="#abc8ae" vector-effect="non-scaling-stroke" d="M926.29 572.5q-.03 5.35-1.12 10.55c-1.72 8.17-.71 14.39 5.04 20.7"/><path stroke="#9bb29a" vector-effect="non-scaling-stroke" d="M930.21 603.75q10.84 9.32 22.2 17.94c2.27 1.72 4.13 3.98 7.08 1.84q5.18-3.75 22.23-17.3.8-.64 3.53-3.69"/><path stroke="#7d7e78" vector-effect="non-scaling-stroke" d="M985.25 602.54c8.09-7.92 5.4-17.93 2.71-28.29"/><path stroke="#9bb29a" vector-effect="non-scaling-stroke" d="M987.96 574.25q.86-9.01 4.15-16.32.78-1.73-.44-3.19c-7.06-8.48-12-7.06-21.93-7.01"/><path stroke="#cda99d" vector-effect="non-scaling-stroke" d="M969.74 547.73c-6.35.38-12.82-.25-18.65.02q-4.79.22-9.59.29"/><path stroke="#726348" vector-effect="non-scaling-stroke" d="M969.74 547.73q.76 12.76.38 25.44c-.02.52-.21.65-.65.84q-.48.21.02.37l.51.16"/><path stroke="#532f26" vector-effect="non-scaling-stroke" d="M970 574.54q-6.11 1.76-12.32.31c-.71-.16-1.1 0-1.64.4"/><path stroke="#82795c" vector-effect="non-scaling-stroke" d="m956.04 575.25-.01-.37a.39.39 0 0 0-.43-.38q-.63.04-1.18.39a1.3 1.29-57.6 0 1-.87.2c-3.4-.38-6.46.96-10.3.12"/><path stroke="#726348" vector-effect="non-scaling-stroke" d="M943.25 575.21c-1.27-7.42-1.55-12.97-.61-24.78a.63.61-20.7 0 1 .18-.38l.28-.24q.33-.3-.1-.42-1.11-.29-1.5-1.35"/><path stroke="#508258" vector-effect="non-scaling-stroke" d="M943.25 575.21c-3.24-.41-13.69-1.57-15.2-.23a.4.4 0 0 1-.63-.13l-1.13-2.35"/><path stroke="#324e37" vector-effect="non-scaling-stroke" d="m956.04 575.25-.25 1"/><path stroke="#508258" vector-effect="non-scaling-stroke" d="m955.79 576.25-.03 20.47a.65.64 76.3 0 1-.34.57l-.31.18a.54.53 68.3 0 0-.26.62c1.05 3.68-5.14 3.68-7.85 3.66q-7.67-.06-15.34.08a1.01.99 16.7 0 0-.8.42q-.51.72-.65 1.5"/><path stroke="#223723" vector-effect="non-scaling-stroke" d="M985.25 602.54q-3.53.01-7.02-.37c-6.82-.73-13.64-.38-20.47-.46a1.38 1.38 0 0 1-1.36-1.35l-.61-24.11m32.17-2-17.96.29"/><path stroke="#82795c" vector-effect="non-scaling-stroke" d="M77.71 556.5q-1 3.25 0 6.5"/><path stroke="#d1ada5" vector-effect="non-scaling-stroke" d="m77.71 563 .73 4.21a.69.69 0 0 0 .59.58c4.91.74 10.26 1.22 14.11-2.58 3.69-3.64 3.55-10.37-1.58-12.83-4.15-1.98-7.8-1.42-13.51-.97a.49.49 0 0 0-.46.5l.12 4.59"/><path stroke="#b0ccb6" vector-effect="non-scaling-stroke" d="M77.71 563v-6.5"/><path stroke="#d1ada5" vector-effect="non-scaling-stroke" d="m948.62 568.83 11.27.22a1.26 1.25 25.6 0 0 .83-.29q7.53-6.17 1.51-14.38a1.73 1.7 82 0 0-.77-.59q-5.06-1.99-10.69-1.12-2.95.45-2.93 3.43l.09 12.02a.71.71 0 0 0 .69.71m-864.57-3.79c10.78 1.93 8.94-14.05-1.6-10.21a.8.77-11.4 0 0-.52.76l.16 7.16q.04 1.94 1.96 2.29"/><path stroke="#d1ada5" vector-effect="non-scaling-stroke" d="M959.65 557.07q-2.99-2.04-6.8-1.3a.97.97 0 0 0-.73.64q-1.32 3.93-.75 8.07a.92.9-81.4 0 0 .5.69c5.4 2.74 11.19.67 8.86-6.64a2.84 2.81 8.9 0 0-1.08-1.46"/><path stroke="#abc8ae" vector-effect="non-scaling-stroke" d="M72.716 579.623a1.36 1.36 0 0 0-1.365-1.355l-1.18.004a1.36 1.36 0 0 0-1.355 1.365l.048 13.64a1.36 1.36 0 0 0 1.365 1.355l1.18-.004a1.36 1.36 0 0 0 1.355-1.365l-.048-13.64"/><path stroke="#818180" vector-effect="non-scaling-stroke" d="m95.75 594.46.62.05a1.22 1.19-63.7 0 0 .94-.33l4.06-3.84a1.03 1.02-27.6 0 0 .3-.94l-.71-3.65"/><path stroke="#7d7e78" vector-effect="non-scaling-stroke" d="m100.96 585.75.47-2.02q.15-.6.46-.07c.44.74 5.44 14.97 9.02 10.57a1.55 1.54 50.9 0 0 .17-1.7q-3.07-5.84-5.59-11.87c-1.37-3.27-4.32-3.87-5.84-.16q-2.35 5.75-6.13 13.72a.36.36 0 0 0 .28.51q.92.1 1.95-.27"/><path stroke="#fbfcf7" vector-effect="non-scaling-stroke" d="m100.96 585.75-2.76 6.93a1.46 1.45 86.3 0 1-.63.72l-1.82 1.06"/><path stroke="#abc8ae" vector-effect="non-scaling-stroke" d="M942.984 580.472a.8.8 0 0 0-.803-.797l-3.12.01a.8.8 0 0 0-.798.803l.053 15.18a.8.8 0 0 0 .803.797l3.12-.01a.8.8 0 0 0 .798-.803l-.053-15.18"/><path stroke="#818180" vector-effect="non-scaling-stroke" d="M972.86 585.24c1.21 3.01 2.82 14.19 8.6 10.76a.53.52 60.3 0 0 .19-.72q-4.07-7.06-7.12-14.61-.81-2.01-2.8-1.16c-1.19.5-7.27 13.9-8.51 16.15a.41.4 14.3 0 0 .36.6l2.71-.02a1.2 1.18-70.4 0 0 .93-.45q3.22-4.07 3.6-7.99.2-2.08 1.39-2.78a.46.45-25.6 0 1 .65.22"/><path stroke="#7d7e78" vector-effect="non-scaling-stroke" d="M971.99 592.786a1.22 1.09 71.4 0 0 .643-1.504 1.22 1.09 71.4 0 0-1.422-.808 1.22 1.09 71.4 0 0-.644 1.504 1.22 1.09 71.4 0 0 1.422.808"/><path stroke="#9bb29a" vector-effect="non-scaling-stroke" d="M891.76 749.36a.76.76 0 0 1 .98-.45l48.2 17.83a.76.76 0 0 0 .95-.4l2.74-5.95a.76.76 0 0 0-.43-1.03l-48.53-17.88a.76.76 0 0 1-.45-.97l4.92-13.64a.76.76 0 0 0-.36-.93l-5.37-2.91a.76.76 0 0 0-1.08.41l-13.76 36.9a.76.76 0 0 0 .49.99l5.96 1.86a.76.76 0 0 0 .95-.47l4.79-13.36m-785.07 22.45c7.98 7.09 20.78 5.36 25.81-3.93 2.89-5.33 2.51-14.78 2.93-21.32q.16-2.55 1.51-4.73 2.56-4.1 6.63-4.05c9.58.12 10.85 14.59 10.2 21.31a.7.69 7 0 0 .59.75l4.94.74a.65.64-79.4 0 0 .72-.5c2.12-9.89-.88-24.21-10.98-29.09q-3.25-1.57-5.34-1.4-15.7 1.33-16.44 17.22c-.36 7.74-.06 22.9-11.19 21.26-11.15-1.63-10.73-16.61-9.97-24.63a.69.68 6.9 0 0-.59-.75l-5.36-.74a.75.75 0 0 0-.83.56c-2.44 9.99-.69 22.15 7.37 29.3m67.35 24.5-45.16 25.2a.58.57-24.7 0 0-.26.7q1.2 3.29 3.42 6.02a.67.67 0 0 0 .85.16l44.88-24.92a.88.88 0 0 1 1.19.34l7.16 12.68a1.1 1.1 0 0 0 1.56.37l4.98-3.27a.68.68 0 0 0 .22-.91l-18.83-33.79a.52.52 0 0 0-.68-.22l-5.91 2.85a.58.58 0 0 0-.25.8l7.09 13.06a.69.68 61 0 1-.26.93m683.81 10.38c-2.01 24.75 28.63 42.91 49.19 27.44q12.51-9.42 13.38-26.59a1.33 1.32 4.3 0 0-1.2-1.39l-5.39-.48a1.09 1.08-87.9 0 0-1.18 1.1c.22 11.09-6.37 21.21-17.04 24.18-11.38 3.17-24.71-5.04-28.4-15.68-4.05-11.7 1.62-21.82 11.79-27.59a.49.48-33.7 0 0 .15-.72l-3.42-4.46q-1.16-1.52-2.73-.4c-8.65 6.19-14.29 13.89-15.15 24.59m-691.54 63.06c-1.91 15.48 13.19 31.43 28.82 26.41q4.4-1.41 13.46-8.66 12.41-9.93 24.72-19.97a.64.63-40.4 0 0 .08-.91l-4.25-4.92a.8.79-40 0 0-1.1-.09q-14.3 11.91-29.01 23.32c-11.81 9.16-27.51-.14-24.1-14.8.95-4.11 3.7-6.67 6.92-9.27q19.18-15.51 27.83-22.23a.65.64-37.5 0 0 .12-.89l-4.04-5.43a.69.68 52.4 0 0-.96-.13q-14.35 11.24-28.48 22.75c-5.4 4.4-9.22 8.4-10.01 14.82M854.9 896.3c-3.25-4.33-8.99-8-13.03-11.88a.6.6 0 0 1-.04-.82l16.72-20.27a.82.82 0 0 0-.02-1.06q-2.09-2.43-4.9-3.98a.76.76 0 0 0-.95.18l-17.19 20.49a.52.52 0 0 1-.74.06l-13.03-11.01a1.02 1.02 0 0 1-.13-1.43l18.87-22.86a.62.62 0 0 0-.07-.86l-4.83-4.24a.64.64 0 0 0-.92.07l-23.65 28.65a1.77 1.76-50.6 0 0 .24 2.49l45.19 37.26a.6.6 0 0 0 .84-.08l24.92-30.33a.76.76 0 0 0-.08-1.04l-4.72-4.19a.55.54 41 0 0-.78.05l-20.7 24.83a.64.64 0 0 1-1-.03m-578.78 33.96c6.36-19.79-8.68-31.9-23.65-43.88a.56.56 0 0 0-.77.08l-38.55 44.93a1.18 1.17 40.7 0 0 .13 1.66c7.68 6.54 16.68 16.14 26.86 18.58 16.11 3.84 30.95-5.72 35.98-21.37m492.39-.35q3.58.78 7.24 1.12 26.63 2.47 54.24 5.11 2.07.2.74-1.4l-38.56-46.05a.54.53 51.4 0 0-.73-.09l-5.59 4.05a.58.58 0 0 0-.1.85l26.52 31.48a1.25 1.11 58.2 0 1-.33 1.9q-.15.05-1.45-.09-29.73-3.23-59.89-6.31a.32.32 0 0 0-.35.36q.1.81.66 1.48 19.23 22.73 38.36 45.63a.88.88 0 0 0 1.17.16l3.93-2.7q2.13-1.46.47-3.44l-26.54-31.72q-.39-.47.21-.34m-478.68 51.74a.64.64 0 0 1-.22-.88l9.03-15.2a.64.64 0 0 1 .88-.22l22.91 13.54a.64.64 0 0 0 .86-.2l3.52-5.54a.64.64 0 0 0-.21-.9l-23.3-13.58a.64.64 0 0 1-.23-.88l8.94-14.99a.64.64 0 0 1 .87-.23l26.08 15.26a.64.64 0 0 0 .88-.24l3.17-5.49a.64.64 0 0 0-.22-.87l-32.92-19.51a.64.64 0 0 0-.88.22l-30.35 51.42a.64.64 0 0 0 .22.87l34.03 19.99a.64.64 0 0 0 .87-.21l3.35-5.45a.64.64 0 0 0-.22-.88l-27.06-16.03m453.14-3.22a.35.35 0 0 1-.42.5l-60.12-19.02a.35.35 0 0 0-.41.5l29.32 54.51a.35.35 0 0 0 .46.15l6.65-3.33a.35.35 0 0 0 .15-.48l-20.13-37.36a.35.35 0 0 1 .41-.5l59.71 18.52a.35.35 0 0 0 .42-.5l-29.35-54.73a.35.35 0 0 0-.5-.13l-6.34 3.98a.35.35 0 0 0-.12.46l20.27 37.43m-350.2 39.62q-.45 1.24-1 .03l-25.14-55.79q-.98-2.16-1.78.07-9.87 27.28-19.09 52.95c-.38 1.06-1.12 2.22-1.54 3.44a.59.59 0 0 0 .32.74l5.74 2.57a1.42 1.42 0 0 0 1.92-.81l13.53-37.61q.55-1.52 1.45-.18.31.46.87 1.66 12.05 26.09 24.65 53.14.67 1.44 1.21-.05l20.74-57.04a.49.49 0 0 0-.26-.62l-5.55-2.47a1.37 1.37 0 0 0-1.85.79l-14.22 39.18m279.26-9.32a31.01 31.01 0 0 0-31.01-31.01 31.01 31.01 0 0 0-31.01 31.01 31.01 31.01 0 0 0 31.01 31.01 31.01 31.01 0 0 0 31.01-31.01m-222.5 41.11a.81.81 0 0 0 .99-.65l8.78-50.79a.81.81 0 0 1 .94-.66l14.48 2.46a.81.81 0 0 0 .93-.65l1.05-5.84a.81.81 0 0 0-.66-.94l-38.5-6.63a.81.81 0 0 0-.94.71l-.65 6.06a.81.81 0 0 0 .67.89l14.15 2.39a.81.81 0 0 1 .66.94l-8.75 50.25a.81.81 0 0 0 .6.92l6.25 1.54m90.55-38.03c-8.89 26.82 14.67 49.66 41.04 39.77q1.46-.55 7.12-3.53a.6.59-24.6 0 0 .28-.74l-2.38-6.31a.5.5 0 0 0-.66-.29c-2.37.96-4.89 2.61-6.8 3.39-14.59 5.92-28.19-1.21-31.36-16.3-4.06-19.34 14.77-34.65 32.81-24.94a.57.57 0 0 0 .82-.32l2.24-6.52a.54.54 0 0 0-.28-.67c-16.49-7.7-36.85-1.55-42.83 16.46"/><path stroke="#9bb29a" vector-effect="non-scaling-stroke" d="M265.63 933.34c9.74-14.81-.51-26.65-12.1-35.87a.61.6 39 0 0-.83.08L224 931.13a.58.57-48.4 0 0 .04.79c6.03 5.7 12.63 11.41 20.65 12.25 8.56.89 16.29-3.75 20.94-10.83m385.558 96.218a23.17 22.68 64.3 0 0 10.388-30.713 23.17 22.68 64.3 0 0-30.484-11.043 23.17 22.68 64.3 0 0-10.388 30.713 23.17 22.68 64.3 0 0 30.484 11.043"/></g><path fill="none" d="M0 0h1070v1172H0V0Zm37.04 469c-1.76 1.37-9.08.76-11.34.79q-2.65.03-2.54 2.68l.69 18.11a.71.71 0 0 0 .82.68l3.01-.47a1.01.99-26.7 0 1 .84.27l2.77 2.69c-10.67 61.43-10.95 119.91.17 181.25-4.25.58-8.51 2.07-8.46 7.25q.08 9.22-.17 17.93a.94.94 0 0 0 1.36.86c2.82-1.4 10.23-3.3 12.85-1.04q.45 3.28 1.25 6.49c28.86 116.41 101.45 220.46 200 288.24 39.77 27.35 84.16 49.87 130.27 64.24q27.77 8.66 43.94 12.28c27.54 6.15 53.8 8.99 78.82 10.88 35.99 2.72 71.82.1 104.93-4.4q26.82-3.64 56.4-12.18 32.72-9.45 40.57-12.29 13.4-4.83 42.81-18.5c72.4-33.66 136.57-86.93 184.51-150.71q61.29-81.55 85.98-181.54.12-.49.44-2.76 5.36-1.25 10.89-.34a1.28 1.27 6.3 0 0 1.48-1.18q.55-9.41-.51-18.69-.3-2.62-2.88-3.21l-3.65-.83q6.01-33.58 6.98-54.75.77-16.84.13-64.01c-.28-20.86-3.29-41.95-6.86-62.49l3.86-1.21q2.87-.89 2.86-3.9l-.06-16.01q-.01-2.37-2.29-2.99l-5.36-1.48q-.51-.14-1.02-.02-2.14.46-3.74-1.14C960.29 275.57 805.91 129.87 612.1 93.51c-37.61-7.06-70.26-6.87-111.04-6.76q-11.05.03-19.97.69c-35.23 2.57-67.07 8.66-101.25 18.47q-9.93 2.84-19.06 6.04C256.46 148.51 167.8 215.88 106.22 308.22q-47.52 71.26-68.9 157.35-.36 1.44-.28 3.43Z"/><path fill="#406b44" d="m1006.79 467.5.02 1.19a.54.53-.5 0 1-.54.54l-125.96.01a1.98 1.98 0 0 1-1.88-1.36c-36.82-112.03-124.3-201.13-236.21-238.8-26.52-8.93-48.39-13.87-73.38-16.84-24.03-2.84-50.27-3.26-76.52-1.63-22.57 1.39-41.25 5.41-61.78 9.41q-6.06 1.18-33.43 10.7c-100.59 35.01-183.1 113.39-222.94 212.7q-4.42 11.02-9.42 25.41a.62.61 9.1 0 1-.59.42H38.49q-.36 0-.66-.18-.38-.21-.79-.07-.08-1.99.28-3.43 21.38-86.09 68.9-157.35c61.58-92.34 150.24-159.71 254.56-196.27q9.13-3.2 19.06-6.04c34.18-9.81 66.02-15.9 101.25-18.47q8.92-.66 19.97-.69c40.78-.11 73.43-.3 111.04 6.76 193.81 36.36 348.19 182.06 394.69 373.99ZM518 150.07q6.25.09 12.46-.36c12.9-.94 20.93-10.4 20.09-23.16-1.5-22.61-25.45-19.95-40.96-19.43a.52.52 0 0 0-.5.52c-.16 22.15-.36 44.47-.97 66.64a.65.64-89.1 0 0 .63.66l7.89.12a.52.52 0 0 0 .53-.51l.31-23.98a.51.51 0 0 1 .52-.5Zm-80.98-37.52c-5.12 24.7-10.73 49.2-15.87 73.71a.48.47 2.1 0 0 .53.56l7.6-1.11a.9.89-88.1 0 0 .74-.7l3.56-17.9a.71.7 89.5 0 1 .53-.55q12.5-2.92 25.18-4.84a.77.77 0 0 1 .77.35l9.22 14.73a2.03 2.02-21.6 0 0 2.12.91l8.12-1.7a.43.43 0 0 0 .27-.66q-20.37-30.91-40.82-61.76-.63-.96-1.48-1.29a.35.34 16.7 0 0-.47.25Zm180.41 55.8a.4.4 0 0 1 .31.33l2.79 17.98a.4.4 0 0 0 .29.33l9.64 2.52a.4.4 0 0 0 .49-.46l-14.27-74.73a.4.4 0 0 0-.72-.15l-43.51 62.49a.4.4 0 0 0 .27.62l8.12 1.34a.4.4 0 0 0 .39-.17l10.32-15.39a.4.4 0 0 1 .42-.17l25.46 5.46Zm-246.364-34.697a.62.62 0 0 0-.797-.366l-7.39 2.734a.62.62 0 0 0-.367.796l23.182 62.67a.62.62 0 0 0 .797.366l7.39-2.734a.62.62 0 0 0 .367-.796l-23.182-62.67ZM691 140.368a.53.53 0 0 0-.299-.688l-7.387-2.91a.53.53 0 0 0-.688.299L658.1 199.333a.53.53 0 0 0 .299.687l7.387 2.91a.53.53 0 0 0 .688-.299L691 140.368Zm42.25 18.622-34.3 57.79a.61.6-60.1 0 0 .22.83l6.77 3.86a.56.55 30.6 0 0 .75-.19l12.6-20.8a.57.56-58.3 0 1 .78-.19l8.56 5.36q1.44.9 1.49 2.59l.7 26.53q.05 1.71 1.56 2.51l7.05 3.72a.45.45 0 0 0 .66-.41l-.88-30.29a.63.62-1.8 0 1 .61-.64q10.69-.37 17.36-9c9.99-12.9 3.42-26.06-9-33.36q-7.24-4.26-14.09-8.51a.61.6 31.1 0 0-.84.2Zm-403.11 67.99c20.84-13.22 19.55-41.34.8-55.48-18.95-14.29-38.25-2.14-54.97 8.58a.94.93-31.2 0 0-.31 1.25l33.12 57.15a.89.89 0 0 0 1.2.34q10.18-5.52 20.16-11.84Z"/><path fill="#f6f8ef" d="m517.48 150.57-.31 23.98a.52.52 0 0 1-.53.51l-7.89-.12a.65.64-89.1 0 1-.63-.66c.61-22.17.81-44.49.97-66.64a.52.52 0 0 1 .5-.52c15.51-.52 39.46-3.18 40.96 19.43.84 12.76-7.19 22.22-20.09 23.16q-6.21.45-12.46.36a.51.51 0 0 0-.52.5Zm.6-34.19c-.15 8.1-.59 16.29-.28 24.37a.52.51-1.1 0 0 .52.49c9.33-.14 22.94.85 23.03-12.56.09-14.23-12.99-13.26-22.76-12.83a.54.53 89.4 0 0-.51.53Zm-81.06-3.83a.35.34 16.7 0 1 .47-.25q.85.33 1.48 1.29 20.45 30.85 40.82 61.76a.43.43 0 0 1-.27.66l-8.12 1.7a2.03 2.02-21.6 0 1-2.12-.91l-9.22-14.73a.77.77 0 0 0-.77-.35q-12.68 1.92-25.18 4.84a.71.7 89.5 0 0-.53.55l-3.56 17.9a.9.89-88.1 0 1-.74.7l-7.6 1.11a.48.47 2.1 0 1-.53-.56c5.14-24.51 10.75-49.01 15.87-73.71Zm-1.36 45.02a.41.41 0 0 0 .48.48l18.31-3.33a.41.41 0 0 0 .27-.62l-13.38-21.62a.41.41 0 0 0-.76.13l-4.92 24.96Zm181.77 10.78-25.46-5.46a.4.4 0 0 0-.42.17l-10.32 15.39a.4.4 0 0 1-.39.17l-8.12-1.34a.4.4 0 0 1-.27-.62l43.51-62.49a.4.4 0 0 1 .72.15l14.27 74.73a.4.4 0 0 1-.49.46l-9.64-2.52a.4.4 0 0 1-.29-.33l-2.79-17.98a.4.4 0 0 0-.31-.33Zm-20.39-13.12a.35.35 0 0 0 .21.54l18.21 4.17a.35.35 0 0 0 .42-.4l-3.85-25.03a.35.35 0 0 0-.63-.15l-14.36 20.87Z"/><path fill="#406b44" d="M517.8 140.75c-.31-8.08.13-16.27.28-24.37a.54.53 89.4 0 1 .51-.53c9.77-.43 22.85-1.4 22.76 12.83-.09 13.41-13.7 12.42-23.03 12.56a.52.51-1.1 0 1-.52-.49Zm-82.14 16.82 4.92-24.96a.41.41 0 0 1 .76-.13l13.38 21.62a.41.41 0 0 1-.27.62l-18.31 3.33a.41.41 0 0 1-.48-.48Z"/><rect fill="#f6f8ef" x="-4.56" y="-34.03" transform="rotate(-20.3 654.398 -973.48)" width="9.12" height="68.06" rx=".62"/><path fill="#406b44" d="m597.04 155.23 14.36-20.87a.35.35 0 0 1 .63.15l3.85 25.03a.35.35 0 0 1-.42.4l-18.21-4.17a.35.35 0 0 1-.21-.54Z"/><rect fill="#f6f8ef" x="-4.5" y="-33.99" transform="rotate(21.5 -110.038 1861.404)" width="9" height="67.98" rx=".53"/><path fill="#f6f8ef" d="M733.25 158.99a.61.6 31.1 0 1 .84-.2q6.85 4.25 14.09 8.51c12.42 7.3 18.99 20.46 9 33.36q-6.67 8.63-17.36 9a.63.62-1.8 0 0-.61.64l.88 30.29a.45.45 0 0 1-.66.41l-7.05-3.72q-1.51-.8-1.56-2.51l-.7-26.53q-.05-1.69-1.49-2.59l-8.56-5.36a.57.56-58.3 0 0-.78.19l-12.6 20.8a.56.55 30.6 0 1-.75.19l-6.77-3.86a.61.6-60.1 0 1-.22-.83l34.3-57.79Zm3.56 11.65c-3.32 6.96-8.41 14.03-12.44 20.88a.89.88 33 0 0 .25 1.16q5.1 3.71 11.25 6.38c6.82 2.96 14.09-1.7 16.17-8.14 3.66-11.35-8.17-15.9-14.83-20.39a.27.27 0 0 0-.4.11Zm-405.87.86c18.75 14.14 20.04 42.26-.8 55.48q-9.98 6.32-20.16 11.84a.89.89 0 0 1-1.2-.34l-33.12-57.15a.94.93-31.2 0 1 .31-1.25c16.72-10.72 36.02-22.87 54.97-8.58Zm-3.37 46.07q11.42-11.16 7.11-25.51c-2.79-9.3-11.1-16.79-20.74-18.16-9.25-1.33-18.24 4.36-25.67 8.9a1.1 1.1 0 0 0-.37 1.5l24.71 42.5a.59.59 0 0 0 .83.2l10.72-6.75q1.85-1.16 3.41-2.68Z"/><path fill="#406b44" d="M724.37 191.52c4.03-6.85 9.12-13.92 12.44-20.88a.27.27 0 0 1 .4-.11c6.66 4.49 18.49 9.04 14.83 20.39-2.08 6.44-9.35 11.1-16.17 8.14q-6.15-2.67-11.25-6.38a.89.88 33 0 1-.25-1.16Zm-396.8 26.05q-1.56 1.52-3.41 2.68L313.44 227a.59.59 0 0 1-.83-.2l-24.71-42.5a1.1 1.1 0 0 1 .37-1.5c7.43-4.54 16.42-10.23 25.67-8.9 9.64 1.37 17.95 8.86 20.74 18.16q4.31 14.35-7.11 25.51Z"/><path fill="#f6f8ef" d="M1006.79 467.5q1.6 1.6 3.74 1.14.51-.12 1.02.02l5.36 1.48q2.28.62 2.29 2.99l.06 16.01q.01 3.01-2.86 3.9l-3.86 1.21-.6-1.78a.68.67 81.1 0 0-.64-.47l-125.08-.01a.42.42 0 0 0-.41.52c7.19 29.02 10.82 58.62 10.59 88.5-.09 11.81.01 24.55-.86 35.4-1.6 20.25-5.19 40.02-9.72 59.81a.37.37 0 0 0 .38.46c8.33-.4 19.34.05 24.9.06q49.79.04 99.59.01 1.51 0 1.6-1.25l3.65.83q2.58.59 2.88 3.21 1.06 9.28.51 18.69a1.28 1.27 6.3 0 1-1.48 1.18q-5.53-.91-10.89.34c-42.33-.46-84.76.56-127.06-.31a1.12 1.11-79.6 0 0-1.06.74c-15.32 42.82-34.53 82.16-63.41 117.56-22.85 28.02-44.97 49.49-74.24 70.99-46.66 34.28-99.55 55.08-156.09 65.35q-9.71 1.76-19.8 2.6-40.51 3.38-81.13.61-14.87-1.02-32.74-4.69c-28.97-5.94-57.16-14.05-83.41-26.04-37.98-17.34-69.07-37.91-99.98-65.97-38.57-35.01-69.79-79.03-90.29-126.83q-8.58-19.99-12.68-33.7a.68.68 0 0 0-.65-.49q-60.95.48-121.92-.16-2.38-.02-5.46.59c-2.62-2.26-10.03-.36-12.85 1.04a.94.94 0 0 1-1.36-.86q.25-8.71.17-17.93c-.05-5.18 4.21-6.67 8.46-7.25q.4 2.6 3 1.98.95-.23 1.93-.23h120.78a.63.63 0 0 1 .61.46l5 16.76q.13.43.06-.01-.93-6.57-2.13-9.7-2.37-6.18-4.12-13.83c-3.98-17.42-6.91-34.38-8.06-52.15-2.98-46.17-.92-92.33 11.99-134.48q2.86-9.36 3.56-13.01.01-.05 0-.01l-6.18 20.44a1.14 1.13-81.2 0 1-1.08.8l-124.42-.06a.85.85 0 0 0-.72.4q-.34.56-.39 1.39l-2.77-2.69a1.01.99-26.7 0 0-.84-.27l-3.01.47a.71.71 0 0 1-.82-.68l-.69-18.11q-.11-2.65 2.54-2.68c2.26-.03 9.58.58 11.34-.79q.41-.14.79.07.3.18.66.18h125.67a.62.61 9.1 0 0 .59-.42q5-14.39 9.42-25.41c39.84-99.31 122.35-177.69 222.94-212.7q27.37-9.52 33.43-10.7c20.53-4 39.21-8.02 61.78-9.41 26.25-1.63 52.49-1.21 76.52 1.63 24.99 2.97 46.86 7.91 73.38 16.84 111.91 37.67 199.39 126.77 236.21 238.8a1.98 1.98 0 0 0 1.88 1.36l125.96-.01a.54.53-.5 0 0 .54-.54l-.02-1.19ZM876.67 584.39a354.85 354.85 0 0 0-354.85-354.85 354.85 354.85 0 0 0-354.85 354.85 354.85 354.85 0 0 0 354.85 354.85 354.85 354.85 0 0 0 354.85-354.85Zm3.287-113.33a.22.22 0 0 0-.27-.155l-.019.005a.22.22 0 0 0-.155.27l4.71 17.58a.22.22 0 0 0 .27.155l.019-.005a.22.22 0 0 0 .155-.27l-4.71-17.58Zm4.486 210.432a.26.26 0 0 0-.191-.314l-.37-.09a.26.26 0 0 0-.313.192l-3.452 14.268a.26.26 0 0 0 .191.314l.37.09a.26.26 0 0 0 .313-.192l3.452-14.268Z"/><path fill="#60986c" d="M876.67 584.39a354.85 354.85 0 0 1-354.85 354.85 354.85 354.85 0 0 1-354.85-354.85 354.85 354.85 0 0 1 354.85-354.85 354.85 354.85 0 0 1 354.85 354.85Zm-687.45 52.44c16.51 105.25 80 195.87 174.2 246.27 39.26 21 84.28 35.18 128.82 37.84 49.72 2.97 95.37-.71 142.43-17.84 116.07-42.26 199.57-141.63 219.46-264.38q1.93-11.91 2.36-23.97c1.37-38.11 1.4-75.58-8.46-112.71-36.89-138.99-157.21-241.12-301.72-251.32-174.12-12.3-328.68 109.05-356.61 281.39-4.48 27.63-4.63 56.99-2.7 84.84q.7 10.21 2.22 19.88Z"/><path fill="#fff" d="M363.42 883.1c-94.2-50.4-157.69-141.02-174.2-246.27q-1.52-9.67-2.22-19.88c-1.93-27.85-1.78-57.21 2.7-84.84 27.93-172.34 182.49-293.69 356.61-281.39 144.51 10.2 264.83 112.33 301.72 251.32 9.86 37.13 9.83 74.6 8.46 112.71q-.43 12.06-2.36 23.97C834.24 761.47 750.74 860.84 634.67 903.1c-47.06 17.13-92.71 20.81-142.43 17.84-44.54-2.66-89.56-16.84-128.82-37.84Zm230.04-411.35q.21-1.74-.67-3.25l-2.25-7.35q-.46-1.5 1.01-.92l6.79 2.69a.53.53 0 0 0 .72-.38c1.65-7.72 7.81-11.32 13.68-15.69a.49.49 0 0 0 .1-.7c-1.32-1.66-4.89-2.48-5.01-4.52a.86.86 0 0 1 .43-.78c5.28-3.08 11.08-2.94 15.93-4.36q.76-.22.7-1.04a.85.84 9.3 0 0-.52-.71c-8.01-3.25-19.36-9.1-18.03-18.82a1.72 1.71-89.6 0 1 1.49-1.47l5.95-.72a.86.85-6.5 0 0 .75-.94q-.67-5.79-2.72-11.15c-2.4-6.24-8.42-9.23-10.7-15.59-1.59-4.45-3.39-6.67-6.83-8.43q-2.16-1.11-3.58.86c-4.86 6.79-12.22 5.86-17.84.78q-1.77-1.6.54-2.23 6.59-1.78 11.82-6.05a1.13 1.12 31.5 0 1 .98-.23l5.03 1.19q1.99.47 2.94-1.34c1.35-2.59 4.26-8.88 8.26-6.75q4.01 2.12 8.13 4.24 3.22 1.67 1.92-1.72c-2.08-5.44-4.76-11.39-5.73-17.61q-.38-2.44 1.82-3.56l5.57-2.84q1.98-1.01.36-2.54-6.66-6.3-13.6-7.53c-5.49-.98-9.53-2.23-11.67-7.73-1.82-4.7-6.08-6.66-9.95-9.22a1.08 1.08 0 0 1-.48-.84l-.2-5.21a.71.71 0 0 0-.57-.67c-20.77-3.98-36.16-11.56-54.2-19.31q-2.35-1.01-1.03-3.2 2.07-3.44 5.73-3.94c5.63-.78 10.87 8.08 16.22 3.5q2.28-1.94 4.59-4a1.41 1.41 0 0 1 .87-.37c11.09-.8 23.2-1.44 34.12.94 6.5 1.41 12.18 2.06 19.05.73q16.81-3.27 34.36 1.34 3.04.8.9 3.1c-2.81 3.04-8.31 6.22-12.87 5.68q-10-1.2-20.01-2.23-2.75-.28-5.54.04-.51.06-.07.32c6.68 3.93 15.49 4.06 22.62 4.92q3.42.42 5.88 2.84c4.82 4.73 10.82 10.83 17.22 13.19q11.33 4.19 25.58 11.17.79.39 1.2-.38a.79.79 0 0 0-.08-.87c-1.38-1.72-12.3-11.54-4.58-13.09q11.39-2.28 22.02 2.41c1.26.56 1.69 1.74.33 2.6l-6.09.03-2.55.05a.42.41 78.1 0 0-.37.57c.89 2.26 10.22 3.09 12.45 3.84 11.86 3.98 27.71 11.37 35.84 21.19q7.49 9.07 16.33 16.87c2.65 2.34 9.18 1.2 5.32-2.6-105.1-103.69-266.65-123.63-394-49.62-2.05 1.19-4.35 2.09-6.53 3.11a.72.72 0 0 0-.4.76q.1.64.95.66c13.81.41 24.06-8.5 37.8-11.68q5.13-1.19 10.18-2.85 14.05-4.6 28.85-5.02c11.25-.31 27.88-3.24 36.88-10.2 2.38-1.83 3.66-4.65 5.56-7.09a1 1 0 0 1 .87-.39l7.67.57q1.72.13 3.29-.59 8.15-3.75 16.78-6.67c1.27-.43 8.57-1.8 9.4-.64a.95.94-25.7 0 1-.51 1.45c-1.7.49-14.15 4.16-14.43 5.11a.5.5 0 0 0 .4.63c2.2.39 20.9 1.69 19.1 6.99-.91 2.69-7.54 3.71-7.62 6.19a.54.54 0 0 0 .5.56c3.59.32 11.15-.85 13.74 2.36a.41.41 0 0 1-.2.65l-7.55 2.41a.69.68 85.3 0 0-.47.56l-.05.35a.53.52 11.7 0 0 .39.58q2.65.71 3.17 3.31a1 .99 63.5 0 1-.3.91c-7 6.46-13.49 9.22-22.76 9.75-11.26.65-20.98 3.28-32.72 6.67-3.41.99-5.34 1.27-7.27 4.53-4.06 6.86-11.12 9.69-19.41 12.88a.56.56 0 0 0-.33.69c.64 2.09 5.53 1.32 7.39.97 4.2-.81 8.4-3.79 12.31-5.85a1.44 1.42 38.1 0 1 1.03-.12q4.55 1.19 6.79 5.37 1.23 2.3-.99 3.66-8 4.9-16.88 8.11a2.28 2.26 82.7 0 0-1.48 1.93q-.34 3.88-3.42 5.87-1.79 1.15-.75 3.01l1.65 2.94a1.21 1.2 39.1 0 1 .1.94q-1.68 5.57-4.66 10.59-1.16 1.97-3.12.78l-7.38-4.49a.96.95-41.6 0 0-.89-.05c-3.94 1.77-17.69 8.45-17.39 11.79a.86.86 0 0 0 .52.71c3.23 1.37 6.51-2.56 8.98-4.86 4.75-4.42 11.88-3.52 16.95-.66a1.15 1.13 8.7 0 1 .55.74c1.1 5 .51 10.33-3.47 13.91-7.82 7.07-13.31 15.55-21.75 22.21-4.44 3.5-4.34 7.28-5.86 13.08q-.74 2.87-3.28 3.31a1.11 1.09 58 0 1-.84-.2q-3.31-2.41-7.35-1.28a1.02 1.02 0 0 1-.93-.21c-.59-.5.99-6.36.68-8.04q-.11-.6-.38-.05l-5.71 11.8a1.9 1.9 0 0 1-1.52 1.07l-9.51.99q-3.26.34-2.61-2.87 1.03-5.1 2.64-11.02c.95-3.46 7.1-7.86 6.78-11.53q-.36-4.06-.83-8.19a.64.63-13.2 0 1 .42-.67c3.26-1.15 7.8 3.98 9.7 6.03q1.38 1.5 2.94.18c4.28-3.61 14.48-11.45 15.78-16.53q.6-2.36-1.55-1.23c-1.96 1.03-3.47 2.2-5.76 2.36q-4.93.34-9.91.37a1.57 1.57 0 0 0-.96.35q-5.07 4.14-11.24 6.38a1.56 1.54-45.3 0 1-1.04.01c-1.79-.59-2.88-1.95-2.89-3.94q-.02-6.84 6.77-9.27 1.28-.45.23-1.32c-5.28-4.39-11.37-8.07-18.61-6.53q-6.89 1.47-13.19 6.44c-2.23 1.76-3.27 4.41-4.38 6.95-2.77 6.34-6.92 11.69-9.01 18.11q-.96 2.96-3.89 4.02c-6.07 2.19-13.81 3.42-13.88 11.65a.84.83-13.1 0 0 1.21.75l12.94-6.42a2.32 2.3-42.7 0 1 2.19.08c7.94 4.64 11.32-.48 15.42-6.12 1.98-2.72 6.56-3.29 8.84-4.16q5.31-2 10.13-3.99 2.2-.91 2.93 1.37c1.03 3.18 2.05 7.33.22 10.45q-3.88 6.6-7.12 13.66a.93.9-81.4 0 1-.7.53c-3.64.57-10.36 4.8-7.76 9.19a.72.72 0 0 0 .76.34c2.58-.49 9.09-3.83 11-2.67a1.07 1.06 33.9 0 1 .31 1.55q-9.27 12.45-19.61 24.03-1.31 1.46-1.92 3.32c-3.65 11.17-4.92 24.31-18.25 28.04a1.06 1.05-20.7 0 0-.67 1.47c1.36 2.82 2.88 5.95 1.95 9.22-1.12 3.93-3.99 11.65-8.93 11.94a1.34 1.34 0 0 1-1.43-1.32l-.09-6.56a1.7 1.67-63.4 0 0-.32-.99q-4.28-6.09-7.08-13.01a1.15 1.14-21.6 0 1 .65-1.5l17.47-6.66q1.64-.63-.05-1.1l-4.93-1.4a2.23 2.23 0 0 1-1.57-1.62q-2.45-9.75-9.83-16.59a.8.79-38.1 0 0-.95-.11l-.66.39a.68.67 60.5 0 0-.25.91l2.8 5.11q1.2 2.18-.95 3.42l-7.9 4.56q-3.04 1.75-.99 4.59 2.21 3.06 5.02 6.4c3.25 3.85.85 11.66-5.41 6.92q-6.68-5.06-14.69-7.84a2.11 2.11 0 0 1-1.4-2.26c.37-3.03 6.49-3.35 8.91-4.17q.57-.19.07-.52l-10.49-6.87a.82.82 0 0 0-1.18.31l-2.77 5.35q-1.98 3.84-4.12.08l-3.57-6.26q-.91-1.62-2.76-1.44-5.77.54-11.14 2.71a1.47 1.46-86.9 0 0-.74.67q-2.7 5.1-7.79 3.71c-3.1-.85-5.81-4.92-8.39-7.15a.49.49 0 0 0-.72.09l-15.12 21.92a3.76 3.72-77.7 0 1-2.39 1.55l-1.05.19a.59.59 0 0 1-.69-.56q-.44-11.5 6.43-20.6c5.18-6.88 6.9-12.77 7.44-21.82q.72-11.97 5.09-23.19.25-.64-.18-2.4a.43.43 0 0 0-.59-.3c-8.41 3.53-18.14 29.07-22.01 38.21q-.61 1.44-.52 3c.22 4.13.14 10.6-2.99 13.98q-6.21 6.7-7.07 13.99-1.27 10.83-2.16 12.74-3.24 6.94-4.65 13.42-3.86 17.77-5.75 37.57c-.67 7.06 3.35 9.93 6.88 14.75q1.03 1.39 1.13 3.13.89 15.23 2.88 30.09c.73 5.4 5.05 10.64 8.36 14.84a1.59 1.57-66.2 0 1 .34.89c.43 7.2-.49 15.02 1.05 21.99 4.08 18.56 7.13 28.67 15.26 44.81 2.81 5.59 3.28 13.23 4.26 19.39a1.27 1.26 61.2 0 1-.29 1.02l-2.33 2.72a.6.59-42.9 0 0-.03.74c.87 1.16 2.11 1.86 2.9 2.99q7.29 10.32 13.82 21.14 3.93 6.5 6.37 9.58c5.06 6.4 12.46 12.68 16.62 17.52 7.97 9.28 17.01 20.09 18.27 32.92a1.45 1.45 0 0 1-1.23 1.57l-7.95 1.16q-3.6.53-2.71 4.05c.66 2.65 2.33 6.09 4.4 8.28 70.5 74.54 170.44 111.08 272.48 100.24q1.61-.17.19-.96c-4.63-2.57-8.7-4.62-14.3-6.67-19.46-7.14-8.3-16.13.15-24.46a1.17 1.15 58.1 0 0 .27-1.2c-2.41-6.69-7.19-19.75-14.42-22.27-4.32-1.5-10.76-2.98-12.32-6.52-1.25-2.83 2.73-11.77 3.79-14.84q3.19-9.18-5.57-12.25-2.18-.76-4.27.2l-8.95 4.14q-2.27 1.05-3.57-1.1c-3.03-5.02-5.58-10.14-12.61-10.21q-5.04-.05-20.84 2.28c-7.61 1.12-12.24-.88-20.64-3.61-7.81-2.55-17.13 1.54-24.66-1.59-7.92-3.29-17.4-13.85-23.03-20.33-3.67-4.23-3.7-14.58-9.38-16.95q-11.83-4.95-12.22-17.97c-.23-7.73 8.34-10.71 9.13-18.38q.43-4.23.42-8.5c-.02-6.38-7.44-10.78-.1-17.45q9.56-8.69 19.75-17.72 2.05-1.83 4.8-1.88 4.99-.09 10.43-2.41c8.96-3.83 4.2-17.42 10.32-19.72q2.99-1.12 11.13-1.59a1.3 1.29-71.1 0 0 .91-.45l7.53-8.66a1.25 1.24 59.9 0 0 .28-1.06l-.71-3.65a1.31 1.31 0 0 0-.74-.94l-9.08-4.18a.84.84 0 0 1-.48-.67l-.96-10.55a1.17 1.15 63.9 0 1 .3-.9c5.29-5.8 3.26-11.42 2.59-18.02-.77-7.6 5.12-8.72 10.77-6.34q10.14 4.25 21.32 6.43a1.83 1.83 0 0 0 2.1-1.25l3.38-10.73a1.86 1.84 32.8 0 0-.4-1.8l-12.14-13.33a1.13 1.11 30.2 0 1-.27-.99c1.33-6.44 14.52-.09 11.92-7.39a.67.67 0 0 1 .37-.84l1.31-.54a.8.79 62.6 0 1 .98.32q1.64 2.63 4.1 1.97c5.94-1.6 10.27-7.43 15.01-10.83 3.75-2.69 5.84-5.45 8.38-8.97a1.68 1.62-79.7 0 1 .86-.62q3.81-1.13 7.78-.82a1.21 1.21 0 0 0 1.28-1.42c-1.75-9.46-3.24-17.33 7.59-21.71a.59.58 66 0 1 .75.29q1.19 2.61.31 5.41a1.54 1.52-47.7 0 0 .04 1.02q1.29 3.21 4.84 3.13a1.12 1.08 67.5 0 1 .83.36c2.88 3.23.38 8.64-3.58 9.6q-.48.11.01.11 1.86-.01 3.59-.87.45-.23.95-.21c9.58.24 16.55-2.57 25.09-5.38a1.73 1.72-20.8 0 0 1.05-2.32q-2.26-5.29-3.02-10.98a1.5 1.5 0 0 1 1.5-1.7l8.44.07q.67.01.25-.52l-4.88-6.09a1.58 1.58 0 0 1 .43-2.35l13.49-7.93a.57.56 61 0 0 .21-.74l-.25-.5a1.31 1.31 0 0 0-1.78-.57l-12.65 6.71q-1.99 1.06-3.18-.85c-2.79-4.49-6.39-11.52-3.97-16.8q3.1-6.76 6.1-12.82a2.28 2.27 36.8 0 0-.37-2.55q-1.69-1.83-4-1.45a1.02 1-83.8 0 0-.79.65q-1.08 2.95-1.65 6.07c-1.23 6.71-12.98 13.36-7.55 20.49q2.69 3.53 5.32 7.2a.94.93 39.3 0 1 .1.93q-1.22 2.74-3.67 4.36a2.9 2.88 74.5 0 0-1.31 2.33l-.35 11.64q-.05 1.69-1.33 2.8l-6.76 5.84a1.1 1.08-59 0 1-.93.24l-1.65-.37a1.1 1.09 85.8 0 1-.78-.68c-.98-2.66-1.27-5.72-2.14-8.11q-1.99-5.43-4.88-10.76a1.25 1.25 0 0 0-1.96-.31c-2.4 2.29-8.69 8.84-11.79 4.31-4.34-6.34-10.09-22.65-1.72-28.4 1.86-1.28 4.7-1.73 6.86-2.24q2.39-.56 3.61-2.68 6.53-11.3 10.02-23.73c3.11-11.06 14.73-18.71 25.45-21.35q2.07-.51 3.28 1.24 1.71 2.46 4.23 3.93a2.01 2.01 0 0 0 1.06.28q10.82-.11 21.28 2.63c7 1.83 3.9 8.88 1.15 12.75a1.5 1.5 0 0 1-.89.6q-5.21 1.18-10.53.31-3.17-.52-.71 1.55 4.3 3.62 9.05 6.56 1.59.98 2.99-.25c4.47-3.95 5.83-13.08 5.66-18.81ZM409.05 355.5c.33 3.66 4.79 4.52 7.64 4.3 4.15-.33 10.11-4.21 13.9-6.47q3.91-2.33-.63-2.71c-5.62-.46-14.84 2.8-20.46 4.25a.6.59 80.9 0 0-.45.63Zm356.73 24.74q.06-3.59 2.46-.92c4.78 5.35 7.73 11.4 14.89 13.67a.3.3 0 0 0 .38-.35c-1.1-5.2-9.72-14.14-14.42-19.81a1.66 1.65-10.5 0 0-.78-.53l-9.42-3.01q-1.37-.44-.78.87l8.18 18.1q.28.62.41-.05c.45-2.35-.95-6.07-.92-7.97Zm-7.87 274.56c-.22 3.38-1.43 6.71-1.6 9.81q-.34 6.45-.52 12.36-.05 1.66-.93 3.08-9.83 15.85-19.33 30.55c-8.71 13.47-19.11 24.57-30.36 35.92q-1.63 1.64-3.63.48c-2.09-1.22-5.07-10.52-6.1-13.1-2.18-5.45-8.34-11.08-13.73-13.26-6.2-2.52-9.06-8.45-14.07-13.85a1.44 1.42 73.4 0 0-.84-.46c-7.55-1.24-12.21-9.17-17.13-14.31-2.93-3.06-5.22-3.15-9.09-2.03a.8.8 0 0 0-.51 1.11c2.12 4.6 9.3 10.67 13.14 14.16a1.01.98 25.3 0 1 .32.85l-.47 4q-.25 2.19 1.86 2.84c8.85 2.72 9.46 5.44 10.3 14.06a1.38 1.38 0 0 0 .41.85c1.28 1.26 3.21 1.82 4.45 2.85q4.64 3.89 9.51 7.58 1.82 1.38 4.07 1.82c8.69 1.67 12.65 4.46 18.54 10.94q1.3 1.43 3 .51c10.02-5.42 21.41-13.16 27.49-23.03q1.73-2.81 3.13.17c2.8 5.93.38 18.05-2.23 24.1-5.15 11.94-11.11 24.63-19.49 34.68q-12.89 15.45-25.41 31.2c-5.85 7.34-4 14.7-2.12 23.99 3.53 17.41-22.43 23.17-30.36 33.26q-5.46 6.95-12.65 12.11-.55.39-.76.88-.24.53.3.32 20.92-8.43 40.56-19.5c7.07-3.98 13.92-14.32 15.71-22.51a1.08 1.08 0 0 1 .55-.74c6.76-3.72 12.98-7.9 17.75-14.25q4.03-5.36 8.65-10.3 1.78-1.9 3.04.39c3.8 6.94-4.55 15.7-10.49 22.93a.29.29 0 0 0 .14.46q.25.07.55-.16c91.26-70.25 137.32-177.2 127.09-292.33-.18-2.08-1.98-9.73-4.93-9.18a.65.64 86.1 0 0-.53.61c-.03 1.09.63 5.52-.22 6.02a.78.77-41.3 0 1-.86-.05c-1.93-1.47-7.52-7.53-9.49-7.39q-1.92.15-2.26 2.04-1.42 7.94-1.25 15.72.5 22.61-1.3 45.13c-.56 7.01 2.61 14.81 3.28 21.53.75 7.48 1.33 19.09-1.29 26.22a1.02 1.02 0 0 1-1.6.45c-12.2-9.73-19.19-20.02-28.97-35.46q-.44-.69-.58.12-.83 4.71-3.56 8.59-1.07 1.51-2.74.73c-5.66-2.61-9.39-4.65-15.92-4.78a3.2 3.19-68.7 0 0-2.46 1.08c-7.84 8.88-18.05 19.21-28.54 24.78a1.15 1.15 0 0 1-1.35-.2l-3.9-3.87a.51.5 39.1 0 0-.78.08c-.67 1 3.86 8.12 4.61 9.56a1.22 1.22 0 0 0 1.49.59q6.81-2.36 13.99-1.27a.5.49 6.4 0 1 .42.52Zm-197.56-13.76-5.16.78a.72.71-7.1 0 0-.61.78q.8 8.01-4.77 13.62a1.24 1.21-24.6 0 0-.36.93c.22 3.97.74 7.72-5.01 6.39q-5.27-1.22-9.79-4.27-3.65-2.47.14-4.7c4.87-2.87 12.73.55 13.21-8.62a1.37 1.36-61.8 0 0-.27-.9c-4.03-5.32-12.32-4.39-16.53-10.73q-4.02-6.03-8.41-12.03-1.77-2.42-4.27-.76l-6.68 4.41q-2.58 1.7-5.41.45c-2.04-.91-8.77-5.72-9.71-.83-1.04 5.4-2.26 6.81-7.19 9.67q-4.18 2.43-8.3 4.87a2.65 2.65 0 0 0-1.21 1.62c-1.44 5.64-4.44 11.47-10.19 13.6q-7.65 2.83-15.77 3.3-.52.03-1 .25l-2.54 1.16q-.33.15.02.27c5.19 1.7 9.7 5.28 15.57 2.87 4.65-1.91 9.73-4.49 14.86-4.44q21.28.2 42.6-.77a1.16 1.15 75 0 1 1.07.62c1.53 2.97 5.37 8.65 3.92 12.03-.66 1.53-2.23 2.4-3.37 3.78a1.14 1.11 61.5 0 0-.25.88c1.16 7.94 10.78 5.92 16.12 5.68q2.19-.1 3.57 1.61l5.11 6.35a1.4 1.37-14.6 0 0 .89.51q4.28.62 8.57 1.21c2.9.41 5.14 1.95 7.57 3.29a1.11 1.1 16.1 0 0 1.64-.9c.16-2.83-.33-6.16.78-8.61 2.29-5.09 10-6.81 14.84-8.41a1.11 1.11 0 0 1 1.34.54l1.59 2.99a1.27 1.25 83.3 0 0 .8.64c3.71 1.02 7.26-.09 10.55.12 7.68.49 15.42.83 22.52-2.6 4.42-2.13 9.16-2.79 13.58-4.52q2.09-.82 2.62-3c1.35-5.47 3.49-11.83 3.13-17.28-.11-1.71-.98-8.2-2.13-9.21q-1.59-1.39-3.19-.02c-3.49 3-7.07 8.98-12.26 5.21a1.7 1.7 0 0 0-2.37.37l-3.65 4.98q-1.58 2.15-4.1 1.25-6.4-2.32-12.92-3.49c-7.66-1.38-5.22-8.78-5.88-14.21a2.05 2.05 0 0 0-1.39-1.71c-2.49-.85-9.12-1.08-10.41 2.09-1.24 3.09 5.95 3.96 6.5 7.66.47 3.08-4.35 9.14-6.11 11.85a1.27 1.23-78.9 0 1-.76.53c-4.38 1.07-6.79-.9-9.26-4.61q-4.57-6.86-9.51-13.53a1.48 1.47-53.1 0 1-.19-1.39l1.81-4.77q.92-2.41-1.61-2.91c-4.58-.91-11.42-2.5-14.42-6.35q-4.1-5.24-8.32-10.4-1.78-2.18-4.47-1.34a1.04 1.04 0 0 0-.66.62c-2.08 5.35 4.02 7.29 6.77 9.85a1.16 1.14-69.1 0 1 .37.85v4.01a.77.77 0 0 0 .47.71q11.58 5.01 16.06 7.76 1.46.89 2.29 3.6a.58.58 0 0 1-.47.75Zm142.96 10.22c-6.15 7.79 13.34 12.48 17.06 12.71a.81.8 82.6 0 1 .72.56l1.23 3.81a1.24 1.23 70 0 0 1.64.77c8.96-3.67 10.82-11.3 11.31-20.1q.03-.49-.24-.08-5.31 8.13-15.21 6.31c-4.1-.76-11.47-10.35-16.51-3.98Z"/><path fill="#406b44" d="M684.25 314.04q3.1.96 6.09-.03c1.36-.86.93-2.04-.33-2.6q-10.63-4.69-22.02-2.41c-7.72 1.55 3.2 11.37 4.58 13.09a.79.79 0 0 1 .08.87q-.41.77-1.2.38-14.25-6.98-25.58-11.17c-6.4-2.36-12.4-8.46-17.22-13.19q-2.46-2.42-5.88-2.84c-7.13-.86-15.94-.99-22.62-4.92q-.44-.26.07-.32 2.79-.32 5.54-.04 10.01 1.03 20.01 2.23c4.56.54 10.06-2.64 12.87-5.68q2.14-2.3-.9-3.1-17.55-4.61-34.36-1.34c-6.87 1.33-12.55.68-19.05-.73-10.92-2.38-23.03-1.74-34.12-.94a1.41 1.41 0 0 0-.87.37q-2.31 2.06-4.59 4c-5.35 4.58-10.59-4.28-16.22-3.5q-3.66.5-5.73 3.94-1.32 2.19 1.03 3.2c18.04 7.75 33.43 15.33 54.2 19.31a.71.71 0 0 1 .57.67l.2 5.21a1.08 1.08 0 0 0 .48.84c3.87 2.56 8.13 4.52 9.95 9.22 2.14 5.5 6.18 6.75 11.67 7.73q6.94 1.23 13.6 7.53 1.62 1.53-.36 2.54l-5.57 2.84q-2.2 1.12-1.82 3.56c.97 6.22 3.65 12.17 5.73 17.61q1.3 3.39-1.92 1.72-4.12-2.12-8.13-4.24c-4-2.13-6.91 4.16-8.26 6.75q-.95 1.81-2.94 1.34l-5.03-1.19a1.13 1.12 31.5 0 0-.98.23q-5.23 4.27-11.82 6.05-2.31.63-.54 2.23c5.62 5.08 12.98 6.01 17.84-.78q1.42-1.97 3.58-.86c3.44 1.76 5.24 3.98 6.83 8.43 2.28 6.36 8.3 9.35 10.7 15.59q2.05 5.36 2.72 11.15a.86.85-6.5 0 1-.75.94l-5.95.72a1.72 1.71-89.6 0 0-1.49 1.47c-1.33 9.72 10.02 15.57 18.03 18.82a.85.84 9.3 0 1 .52.71q.06.82-.7 1.04c-4.85 1.42-10.65 1.28-15.93 4.36a.86.86 0 0 0-.43.78c.12 2.04 3.69 2.86 5.01 4.52a.49.49 0 0 1-.1.7c-5.87 4.37-12.03 7.97-13.68 15.69a.53.53 0 0 1-.72.38l-6.79-2.69q-1.47-.58-1.01.92l2.25 7.35q-.57 1.93.67 3.25c.17 5.73-1.19 14.86-5.66 18.81q-1.4 1.23-2.99.25-4.75-2.94-9.05-6.56-2.46-2.07.71-1.55 5.32.87 10.53-.31a1.5 1.5 0 0 0 .89-.6c2.75-3.87 5.85-10.92-1.15-12.75q-10.46-2.74-21.28-2.63a2.01 2.01 0 0 1-1.06-.28q-2.52-1.47-4.23-3.93-1.21-1.75-3.28-1.24c-10.72 2.64-22.34 10.29-25.45 21.35q-3.49 12.43-10.02 23.73-1.22 2.12-3.61 2.68c-2.16.51-5 .96-6.86 2.24-8.37 5.75-2.62 22.06 1.72 28.4 3.1 4.53 9.39-2.02 11.79-4.31a1.25 1.25 0 0 1 1.96.31q2.89 5.33 4.88 10.76c.87 2.39 1.16 5.45 2.14 8.11a1.1 1.09 85.8 0 0 .78.68l1.65.37a1.1 1.08-59 0 0 .93-.24l6.76-5.84q1.28-1.11 1.33-2.8l.35-11.64a2.9 2.88 74.5 0 1 1.31-2.33q2.45-1.62 3.67-4.36a.94.93 39.3 0 0-.1-.93q-2.63-3.67-5.32-7.2c-5.43-7.13 6.32-13.78 7.55-20.49q.57-3.12 1.65-6.07a1.02 1-83.8 0 1 .79-.65q2.31-.38 4 1.45a2.28 2.27 36.8 0 1 .37 2.55q-3 6.06-6.1 12.82c-2.42 5.28 1.18 12.31 3.97 16.8q1.19 1.91 3.18.85l12.65-6.71a1.31 1.31 0 0 1 1.78.57l.25.5a.57.56 61 0 1-.21.74l-13.49 7.93a1.58 1.58 0 0 0-.43 2.35l4.88 6.09q.42.53-.25.52l-8.44-.07a1.5 1.5 0 0 0-1.5 1.7q.76 5.69 3.02 10.98a1.73 1.72-20.8 0 1-1.05 2.32c-8.54 2.81-15.51 5.62-25.09 5.38q-.5-.02-.95.21-1.73.86-3.59.87-.49 0-.01-.11c3.96-.96 6.46-6.37 3.58-9.6a1.12 1.08 67.5 0 0-.83-.36q-3.55.08-4.84-3.13a1.54 1.52-47.7 0 1-.04-1.02q.88-2.8-.31-5.41a.59.58 66 0 0-.75-.29c-10.83 4.38-9.34 12.25-7.59 21.71a1.21 1.21 0 0 1-1.28 1.42q-3.97-.31-7.78.82a1.68 1.62-79.7 0 0-.86.62c-2.54 3.52-4.63 6.28-8.38 8.97-4.74 3.4-9.07 9.23-15.01 10.83q-2.46.66-4.1-1.97a.8.79 62.6 0 0-.98-.32l-1.31.54a.67.67 0 0 0-.37.84c2.6 7.3-10.59.95-11.92 7.39a1.13 1.11 30.2 0 0 .27.99l12.14 13.33a1.86 1.84 32.8 0 1 .4 1.8l-3.38 10.73a1.83 1.83 0 0 1-2.1 1.25q-11.18-2.18-21.32-6.43c-5.65-2.38-11.54-1.26-10.77 6.34.67 6.6 2.7 12.22-2.59 18.02a1.17 1.15 63.9 0 0-.3.9l.96 10.55a.84.84 0 0 0 .48.67l9.08 4.18a1.31 1.31 0 0 1 .74.94l.71 3.65a1.25 1.24 59.9 0 1-.28 1.06l-7.53 8.66a1.3 1.29-71.1 0 1-.91.45q-8.14.47-11.13 1.59c-6.12 2.3-1.36 15.89-10.32 19.72q-5.44 2.32-10.43 2.41-2.75.05-4.8 1.88-10.19 9.03-19.75 17.72c-7.34 6.67.08 11.07.1 17.45q.01 4.27-.42 8.5c-.79 7.67-9.36 10.65-9.13 18.38q.39 13.02 12.22 17.97c5.68 2.37 5.71 12.72 9.38 16.95 5.63 6.48 15.11 17.04 23.03 20.33 7.53 3.13 16.85-.96 24.66 1.59 8.4 2.73 13.03 4.73 20.64 3.61q15.8-2.33 20.84-2.28c7.03.07 9.58 5.19 12.61 10.21q1.3 2.15 3.57 1.1l8.95-4.14q2.09-.96 4.27-.2 8.76 3.07 5.57 12.25c-1.06 3.07-5.04 12.01-3.79 14.84 1.56 3.54 8 5.02 12.32 6.52 7.23 2.52 12.01 15.58 14.42 22.27a1.17 1.15 58.1 0 1-.27 1.2c-8.45 8.33-19.61 17.32-.15 24.46 5.6 2.05 9.67 4.1 14.3 6.67q1.42.79-.19.96c-102.04 10.84-201.98-25.7-272.48-100.24-2.07-2.19-3.74-5.63-4.4-8.28q-.89-3.52 2.71-4.05l7.95-1.16a1.45 1.45 0 0 0 1.23-1.57c-1.26-12.83-10.3-23.64-18.27-32.92-4.16-4.84-11.56-11.12-16.62-17.52q-2.44-3.08-6.37-9.58-6.53-10.82-13.82-21.14c-.79-1.13-2.03-1.83-2.9-2.99a.6.59-42.9 0 1 .03-.74l2.33-2.72a1.27 1.26 61.2 0 0 .29-1.02c-.98-6.16-1.45-13.8-4.26-19.39-8.13-16.14-11.18-26.25-15.26-44.81-1.54-6.97-.62-14.79-1.05-21.99a1.59 1.57-66.2 0 0-.34-.89c-3.31-4.2-7.63-9.44-8.36-14.84q-1.99-14.86-2.88-30.09-.1-1.74-1.13-3.13c-3.53-4.82-7.55-7.69-6.88-14.75q1.89-19.8 5.75-37.57 1.41-6.48 4.65-13.42.89-1.91 2.16-12.74.86-7.29 7.07-13.99c3.13-3.38 3.21-9.85 2.99-13.98q-.09-1.56.52-3c3.87-9.14 13.6-34.68 22.01-38.21a.43.43 0 0 1 .59.3q.43 1.76.18 2.4-4.37 11.22-5.09 23.19c-.54 9.05-2.26 14.94-7.44 21.82q-6.87 9.1-6.43 20.6a.59.59 0 0 0 .69.56l1.05-.19a3.76 3.72-77.7 0 0 2.39-1.55l15.12-21.92a.49.49 0 0 1 .72-.09c2.58 2.23 5.29 6.3 8.39 7.15q5.09 1.39 7.79-3.71a1.47 1.46-86.9 0 1 .74-.67q5.37-2.17 11.14-2.71 1.85-.18 2.76 1.44l3.57 6.26q2.14 3.76 4.12-.08l2.77-5.35a.82.82 0 0 1 1.18-.31l10.49 6.87q.5.33-.07.52c-2.42.82-8.54 1.14-8.91 4.17a2.11 2.11 0 0 0 1.4 2.26q8.01 2.78 14.69 7.84c6.26 4.74 8.66-3.07 5.41-6.92q-2.81-3.34-5.02-6.4-2.05-2.84.99-4.59l7.9-4.56q2.15-1.24.95-3.42l-2.8-5.11a.68.67 60.5 0 1 .25-.91l.66-.39a.8.79-38.1 0 1 .95.11q7.38 6.84 9.83 16.59a2.23 2.23 0 0 0 1.57 1.62l4.93 1.4q1.69.47.05 1.1l-17.47 6.66a1.15 1.14-21.6 0 0-.65 1.5q2.8 6.92 7.08 13.01a1.7 1.67-63.4 0 1 .32.99l.09 6.56a1.34 1.34 0 0 0 1.43 1.32c4.94-.29 7.81-8.01 8.93-11.94.93-3.27-.59-6.4-1.95-9.22a1.06 1.05-20.7 0 1 .67-1.47c13.33-3.73 14.6-16.87 18.25-28.04q.61-1.86 1.92-3.32 10.34-11.58 19.61-24.03a1.07 1.06 33.9 0 0-.31-1.55c-1.91-1.16-8.42 2.18-11 2.67a.72.72 0 0 1-.76-.34c-2.6-4.39 4.12-8.62 7.76-9.19a.93.9-81.4 0 0 .7-.53q3.24-7.06 7.12-13.66c1.83-3.12.81-7.27-.22-10.45q-.73-2.28-2.93-1.37-4.82 1.99-10.13 3.99c-2.28.87-6.86 1.44-8.84 4.16-4.1 5.64-7.48 10.76-15.42 6.12a2.32 2.3-42.7 0 0-2.19-.08l-12.94 6.42a.84.83-13.1 0 1-1.21-.75c.07-8.23 7.81-9.46 13.88-11.65q2.93-1.06 3.89-4.02c2.09-6.42 6.24-11.77 9.01-18.11 1.11-2.54 2.15-5.19 4.38-6.95q6.3-4.97 13.19-6.44c7.24-1.54 13.33 2.14 18.61 6.53q1.05.87-.23 1.32-6.79 2.43-6.77 9.27c.01 1.99 1.1 3.35 2.89 3.94a1.56 1.54-45.3 0 0 1.04-.01q6.17-2.24 11.24-6.38a1.57 1.57 0 0 1 .96-.35q4.98-.03 9.91-.37c2.29-.16 3.8-1.33 5.76-2.36q2.15-1.13 1.55 1.23c-1.3 5.08-11.5 12.92-15.78 16.53q-1.56 1.32-2.94-.18c-1.9-2.05-6.44-7.18-9.7-6.03a.64.63-13.2 0 0-.42.67q.47 4.13.83 8.19c.32 3.67-5.83 8.07-6.78 11.53q-1.61 5.92-2.64 11.02-.65 3.21 2.61 2.87l9.51-.99a1.9 1.9 0 0 0 1.52-1.07l5.71-11.8q.27-.55.38.05c.31 1.68-1.27 7.54-.68 8.04a1.02 1.02 0 0 0 .93.21q4.04-1.13 7.35 1.28a1.11 1.09 58 0 0 .84.2q2.54-.44 3.28-3.31c1.52-5.8 1.42-9.58 5.86-13.08 8.44-6.66 13.93-15.14 21.75-22.21 3.98-3.58 4.57-8.91 3.47-13.91a1.15 1.13 8.7 0 0-.55-.74c-5.07-2.86-12.2-3.76-16.95.66-2.47 2.3-5.75 6.23-8.98 4.86a.86.86 0 0 1-.52-.71c-.3-3.34 13.45-10.02 17.39-11.79a.96.95-41.6 0 1 .89.05l7.38 4.49q1.96 1.19 3.12-.78 2.98-5.02 4.66-10.59a1.21 1.2 39.1 0 0-.1-.94l-1.65-2.94q-1.04-1.86.75-3.01 3.08-1.99 3.42-5.87a2.28 2.26 82.7 0 1 1.48-1.93q8.88-3.21 16.88-8.11 2.22-1.36.99-3.66-2.24-4.18-6.79-5.37a1.44 1.42 38.1 0 0-1.03.12c-3.91 2.06-8.11 5.04-12.31 5.85-1.86.35-6.75 1.12-7.39-.97a.56.56 0 0 1 .33-.69c8.29-3.19 15.35-6.02 19.41-12.88 1.93-3.26 3.86-3.54 7.27-4.53 11.74-3.39 21.46-6.02 32.72-6.67 9.27-.53 15.76-3.29 22.76-9.75a1 .99 63.5 0 0 .3-.91q-.52-2.6-3.17-3.31a.53.52 11.7 0 1-.39-.58l.05-.35a.69.68 85.3 0 1 .47-.56l7.55-2.41a.41.41 0 0 0 .2-.65c-2.59-3.21-10.15-2.04-13.74-2.36a.54.54 0 0 1-.5-.56c.08-2.48 6.71-3.5 7.62-6.19 1.8-5.3-16.9-6.6-19.1-6.99a.5.5 0 0 1-.4-.63c.28-.95 12.73-4.62 14.43-5.11a.95.94-25.7 0 0 .51-1.45c-.83-1.16-8.13.21-9.4.64q-8.63 2.92-16.78 6.67-1.57.72-3.29.59l-7.67-.57a1 1 0 0 0-.87.39c-1.9 2.44-3.18 5.26-5.56 7.09-9 6.96-25.63 9.89-36.88 10.2q-14.8.42-28.85 5.02-5.05 1.66-10.18 2.85c-13.74 3.18-23.99 12.09-37.8 11.68q-.85-.02-.95-.66a.72.72 0 0 1 .4-.76c2.18-1.02 4.48-1.92 6.53-3.11 127.35-74.01 288.9-54.07 394 49.62 3.86 3.8-2.67 4.94-5.32 2.6q-8.84-7.8-16.33-16.87c-8.13-9.82-23.98-17.21-35.84-21.19-2.23-.75-11.56-1.58-12.45-3.84a.42.41 78.1 0 1 .37-.57l2.55-.05ZM467 385.78l-15.21-.89a3.94 3.9 29.8 0 0-2.4.64q-4.85 3.18-3.86 8.61.52 2.86.33 3.79c-1.79 8.91-19.23 18.92-26.48 23.18q-1.68.98-1.82 2.92l-.21 2.93a.92.91-8.6 0 1-.59.79q-6.66 2.6-13.17 5.78c-6.59 3.22-13.64 17.42-16.34 24.09-2.5 6.17-.5 13.7-.01 20.18a.44.43 74.3 0 0 .63.36q8.77-4.55 17.64-9.19c4.76-2.49 8.24-5.85 12.29-9.28a.64.63 41.1 0 1 .76-.05l8 5.16a2.2 2.2 0 0 0 2.62-.17l6.77-5.72a.7.68 37.5 0 1 .75-.09c8.48 4.19 16.97 1.91 26.93-.01 5.8-1.12 5.29-5.16 6.57-9.75 1.81-6.44 5.57-6.87 10.75-9.43 8.04-3.98 6.88-20.1 15.35-25.58 1.81-1.18 11.1-3.98 9.36-7.38a1.44 1.4-2 0 0-.74-.67l-4.29-1.71a.96.95-81.4 0 1-.6-.83c-.18-2.73 1-5.56.39-7.85-2.18-8.21-17.88-.82-18.67-8.31a1.6 1.52 58.5 0 1 .2-.94c4.62-7.84 1.02-12.39-3.54-18.46-5.41-7.19-14.23-8.62-21-2.72-.89.78-2.46.98-3.07-.14a1.31 1.28-53.5 0 1-.13-.94q1.24-5.33 1.35-14.01.05-4.34 4.33-3.61a.86.83-4 0 1 .65.55q1.01 2.79 3.5 4.35a.61.61 0 0 0 .79-.12q4.51-5.36 1.17-11.24-1.16-2.04-3.45-1.49c-5.1 1.22-9.17 1.66-13.61 4.67q-2.38 1.6-2.6 4.47l-.49 6.35a1.36 1.35 87 0 1-1.1 1.23l-2.23.43a.99.97 5.5 0 0-.72.58q-3.01 7-7.07 13.45a1.76 1.74-30.2 0 0-.27 1c.06 1.86-.43 12.6 3.97 9.76a1.63 1.6 29 0 1 .9-.25c5.77.17 12.35-.35 17.86 1.52 1.37.46 10.67 2.24 10.55 3.41a.7.7 0 0 1-.74.63Zm123.97 55.08q6.06 2.84 12.81 3.05a.68.67-86.9 0 0 .69-.63l.14-2.13a.7.69-79.6 0 0-.49-.72c-3.58-1.13-8.74-2.95-10.3-6.72q-4.66-11.21-4.9-23.67-.04-1.93-1.92-2.35c-3.98-.9-4.26 14.26-4.54 16.9q-.05.53.16 1.02l5.24 12.05q.95 2.19 3.11 3.2Zm-55.13-9.4q2.5 1.22 5.11.3a.72.72 0 0 0 .37-1.07l-2.47-3.87a2.34 2.33 42.4 0 1-.11-2.32c.99-1.94 3.71-5.84 1.88-7.74a1.13 1.12 66.5 0 0-.88-.35q-4.96.27-9.43 2.45a1.88 1.81-53.8 0 1-1.02.18c-3.16-.36-9.25-1.89-7.01 4.3 1.39 3.85 6.64 15.23 11.76 14.69a.87.85-79.8 0 0 .68-.48q1.3-2.68.56-5.64-.21-.83.56-.45Zm-92.57 45.94c.31 8.48-.3 18.22 11.48 18.56 6.55.19 15.46-.34 13.83-9.52-1.07-6.05-7.09-5.15-11.76-5.46a1.93 1.93 0 0 1-1.79-1.75l-.42-4.51a1.33 1.33 0 0 0-1.75-1.14l-9.04 3.01a.82.81-11 0 0-.55.81Zm-226.65 9.48q-1.82 1.71-2.2 4.18c-2.24 14.49-2.39 29.08-2.88 43.89a.54.54 0 0 0 .49.56c1.98.2 2.87-.77 3.16-2.74 1.34-9.05 3.36-18.42 3.7-27.1q.38-9.89-.13-19.83-.05-.92-.72-.29l-1.42 1.33Zm261.59 74.38q-2.14.51-3.91-.77a.49.48 24.5 0 0-.76.28q-1.04 4.67-4.52 8a.61.61 0 0 0 .03.91l1.91 1.56q1.55 1.27.07 2.62c-1.62 1.49-5.18 3.34-5.94 5.28q-.79 2.02 1.36 1.67 10.54-1.71 21.25-1.29 2.17.08 3.56-1.59 2.99-3.6 3.74-8.2.36-2.23-1.82-2.8c-1.6-.42-2.61-1.58-2.99-3.32q-1.77-8.1-6.25-16.75a1.57 1.56-38.3 0 1 .21-1.76c2.38-2.69 4.09-6.12-.54-8.53a1.49 1.49 0 0 1-.79-1.48l.53-4.62a.52.51-89.5 0 0-.56-.57c-10.12.92-15.79 2.8-12.22 14.77.9 3.03 1 5.67 1.76 8.57a1.08 1.08 0 0 0 .65.73q4.44 1.76 5.78 6.33a.77.75 75.3 0 1-.55.96Zm-263.8-20.31-2.43-.34a.57.56-81.9 0 0-.64.49c-.91 6.46-2.05 14.48-.08 20.73.34 1.07 2.55 7.79 3.73 7.68a.45.44-2.2 0 0 .4-.43q.45-13.73-.33-27.43a.75.74 2.3 0 0-.65-.7Zm234.83 25.9a4.1 4.09-18.3 0 0 2.53 1.27q6.96.8 13.39-1.08c4.48-1.31 4.56-6.11 5.34-9.74 1.11-5.23-1.95-8.87-7.26-9.35a1.49 1.48 30.7 0 0-.92.23c-3.53 2.33-6.58 4.54-8.46 8.58-1.07 2.32-6.35 8.26-4.62 10.09Z"/><path fill="#60986c" d="M690.34 314.01q-2.99.99-6.09.03l6.09-.03Z"/><path fill="#fff" d="M467.74 385.15c.12-1.17-9.18-2.95-10.55-3.41-5.51-1.87-12.09-1.35-17.86-1.52a1.63 1.6 29 0 0-.9.25c-4.4 2.84-3.91-7.9-3.97-9.76a1.76 1.74-30.2 0 1 .27-1q4.06-6.45 7.07-13.45a.99.97 5.5 0 1 .72-.58l2.23-.43a1.36 1.35 87 0 0 1.1-1.23l.49-6.35q.22-2.87 2.6-4.47c4.44-3.01 8.51-3.45 13.61-4.67q2.29-.55 3.45 1.49 3.34 5.88-1.17 11.24a.61.61 0 0 1-.79.12q-2.49-1.56-3.5-4.35a.86.83-4 0 0-.65-.55q-4.28-.73-4.33 3.61-.11 8.68-1.35 14.01a1.31 1.28-53.5 0 0 .13.94c.61 1.12 2.18.92 3.07.14 6.77-5.9 15.59-4.47 21 2.72 4.56 6.07 8.16 10.62 3.54 18.46a1.6 1.52 58.5 0 0-.2.94c.79 7.49 16.49.1 18.67 8.31.61 2.29-.57 5.12-.39 7.85a.96.95-81.4 0 0 .6.83l4.29 1.71a1.44 1.4-2 0 1 .74.67c1.74 3.4-7.55 6.2-9.36 7.38-8.47 5.48-7.31 21.6-15.35 25.58-5.18 2.56-8.94 2.99-10.75 9.43-1.28 4.59-.77 8.63-6.57 9.75-9.96 1.92-18.45 4.2-26.93.01a.7.68 37.5 0 0-.75.09l-6.77 5.72a2.2 2.2 0 0 1-2.62.17l-8-5.16a.64.63 41.1 0 0-.76.05c-4.05 3.43-7.53 6.79-12.29 9.28q-8.87 4.64-17.64 9.19a.44.43 74.3 0 1-.63-.36c-.49-6.48-2.49-14.01.01-20.18 2.7-6.67 9.75-20.87 16.34-24.09q6.51-3.18 13.17-5.78a.92.91-8.6 0 0 .59-.79l.21-2.93q.14-1.94 1.82-2.92c7.25-4.26 24.69-14.27 26.48-23.18q.19-.93-.33-3.79-.99-5.43 3.86-8.61a3.94 3.9 29.8 0 1 2.4-.64l15.21.89a.7.7 0 0 0 .74-.63Z"/><path fill="#406b44" d="M416.69 359.8c-2.85.22-7.31-.64-7.64-4.3a.6.59 80.9 0 1 .45-.63c5.62-1.45 14.84-4.71 20.46-4.25q4.54.38.63 2.71c-3.79 2.26-9.75 6.14-13.9 6.47Zm349.09 20.44c-.03 1.9 1.37 5.62.92 7.97q-.13.67-.41.05l-8.18-18.1q-.59-1.31.78-.87l9.42 3.01a1.66 1.65-10.5 0 1 .78.53c4.7 5.67 13.32 14.61 14.42 19.81a.3.3 0 0 1-.38.35c-7.16-2.27-10.11-8.32-14.89-13.67q-2.4-2.67-2.46.92Z"/><path fill="#f6f8ef" d="M590.97 440.86q-2.16-1.01-3.11-3.2l-5.24-12.05q-.21-.49-.16-1.02c.28-2.64.56-17.8 4.54-16.9q1.88.42 1.92 2.35.24 12.46 4.9 23.67c1.56 3.77 6.72 5.59 10.3 6.72a.7.69-79.6 0 1 .49.72l-.14 2.13a.68.67-86.9 0 1-.69.63q-6.75-.21-12.81-3.05Z"/><path fill="#fff" d="M535.28 431.91q.74 2.96-.56 5.64a.87.85-79.8 0 1-.68.48c-5.12.54-10.37-10.84-11.76-14.69-2.24-6.19 3.85-4.66 7.01-4.3a1.88 1.81-53.8 0 0 1.02-.18q4.47-2.18 9.43-2.45a1.13 1.12 66.5 0 1 .88.35c1.83 1.9-.89 5.8-1.88 7.74a2.34 2.33 42.4 0 0 .11 2.32l2.47 3.87a.72.72 0 0 1-.37 1.07q-2.61.92-5.11-.3-.77-.38-.56.45Z"/><path fill="#60986c" d="M592.79 468.5q.88 1.51.67 3.25-1.24-1.32-.67-3.25Z"/><path fill="#406b44" d="M31.46 675c-11.12-61.34-10.84-119.82-.17-181.25q.05-.83.39-1.39a.85.85 0 0 1 .72-.4l124.42.06a1.14 1.13-81.2 0 0 1.08-.8l6.18-20.44q.01-.04 0 .01-.7 3.65-3.56 13.01c-12.91 42.15-14.97 88.31-11.99 134.48 1.15 17.77 4.08 34.73 8.06 52.15q1.75 7.65 4.12 13.83 1.2 3.13 2.13 9.7.07.44-.06.01l-5-16.76a.63.63 0 0 0-.61-.46H36.39q-.98 0-1.93.23-2.6.62-3-1.98Zm27.91-69.36q12.95 10.34 25.72 20.16 2.03 1.56 4.08.03 13.67-10.3 26.9-20.99 8.29-6.7 8.03-17.53c-.15-6.24-2.86-12.05-2.64-18.32.22-6.09 3.43-12.31 4.57-17.01a.91.9-61.4 0 0-.24-.84c-5.65-5.68-9.19-8.57-16.54-8.6q-22.85-.09-45.7-.02c-5.93.02-11.18 5.14-15.14 8.94a.84.83 56.2 0 0-.18.93c3.02 6.9 5.73 13 4.94 20.8-.45 4.46-2.77 10.61-2.59 15.5q.39 10.25 8.79 16.95Z"/><rect fill="#60986c" x="-.23" y="-9.32" transform="rotate(-15 2263.684 -3110.114)" width=".46" height="18.64" rx=".22"/><path fill="#fff" d="M454.75 495.96c-11.78-.34-11.17-10.08-11.48-18.56a.82.81-11 0 1 .55-.81l9.04-3.01a1.33 1.33 0 0 1 1.75 1.14l.42 4.51a1.93 1.93 0 0 0 1.79 1.75c4.67.31 10.69-.59 11.76 5.46 1.63 9.18-7.28 9.71-13.83 9.52Z"/><path fill="#f6f8ef" d="m216.62 486.88 1.42-1.33q.67-.63.72.29.51 9.94.13 19.83c-.34 8.68-2.36 18.05-3.7 27.1-.29 1.97-1.18 2.94-3.16 2.74a.54.54 0 0 1-.49-.56c.49-14.81.64-29.4 2.88-43.89q.38-2.47 2.2-4.18Z"/><path fill="#406b44" d="M1012.54 494.25c3.57 20.54 6.58 41.63 6.86 62.49q.64 47.17-.13 64.01-.97 21.17-6.98 54.75-.09 1.25-1.6 1.25-49.8.03-99.59-.01c-5.56-.01-16.57-.46-24.9-.06a.37.37 0 0 1-.38-.46c4.53-19.79 8.12-39.56 9.72-59.81.87-10.85.77-23.59.86-35.4.23-29.88-3.4-59.48-10.59-88.5a.42.42 0 0 1 .41-.52l125.08.01a.68.67 81.1 0 1 .64.47l.6 1.78Zm-76.8 118.62q7.7 6.23 15.6 12.2c3.04 2.29 5.08 4.26 8.23 2.27q5.55-3.49 25.92-20.07 9.26-7.53 8.86-18.96c-.14-4.03-1.97-9.34-2.56-14.06-.8-6.42 1.73-13.01 4.3-18.78q.93-2.08-.83-3.51l-6.98-5.68q-1.4-1.13-3.2-1.13-26.21-.03-52.37-.2c-5.19-.03-9.67 3.24-13.35 6.59q-1.88 1.71-.75 3.98 4.06 8.12 4.42 17.36c.13 3.06-.93 6.23-1.67 9.27-3.76 15.49 2.76 21.31 14.38 30.72Z"/><path fill="#fff" d="M478.21 561.26a.77.75 75.3 0 0 .55-.96q-1.34-4.57-5.78-6.33a1.08 1.08 0 0 1-.65-.73c-.76-2.9-.86-5.54-1.76-8.57-3.57-11.97 2.1-13.85 12.22-14.77a.52.51-89.5 0 1 .56.57l-.53 4.62a1.49 1.49 0 0 0 .79 1.48c4.63 2.41 2.92 5.84.54 8.53a1.57 1.56-38.3 0 0-.21 1.76q4.48 8.65 6.25 16.75c.38 1.74 1.39 2.9 2.99 3.32q2.18.57 1.82 2.8-.75 4.6-3.74 8.2-1.39 1.67-3.56 1.59-10.71-.42-21.25 1.29-2.15.35-1.36-1.67c.76-1.94 4.32-3.79 5.94-5.28q1.48-1.35-.07-2.62l-1.91-1.56a.61.61 0 0 1-.03-.91q3.48-3.33 4.52-8a.49.48 24.5 0 1 .76-.28q1.77 1.28 3.91.77Z"/><path fill="#f6f8ef" d="M214.41 540.95a.75.74 2.3 0 1 .65.7q.78 13.7.33 27.43a.45.44-2.2 0 1-.4.43c-1.18.11-3.39-6.61-3.73-7.68-1.97-6.25-.83-14.27.08-20.73a.57.56-81.9 0 1 .64-.49l2.43.34ZM59.37 605.64q-8.4-6.7-8.79-16.95c-.18-4.89 2.14-11.04 2.59-15.5.79-7.8-1.92-13.9-4.94-20.8a.84.83 56.2 0 1 .18-.93c3.96-3.8 9.21-8.92 15.14-8.94q22.85-.07 45.7.02c7.35.03 10.89 2.92 16.54 8.6a.91.9-61.4 0 1 .24.84c-1.14 4.7-4.35 10.92-4.57 17.01-.22 6.27 2.49 12.08 2.64 18.32q.26 10.83-8.03 17.53-13.23 10.69-26.9 20.99-2.05 1.53-4.08-.03-12.77-9.82-25.72-20.16ZM56.54 574c-2.2 10.72-5.01 18.02 2.92 27q.82 1.05 2.73 2.57 11.35 9 22.72 18.05c2.41 1.92 3.61.73 5.58-.77q12.08-9.2 21.03-16.59 1.53-1.26 3.48-3.47c8.48-8.42 5.43-17.96 2.46-29.04q1.43-8.79 5.31-16.87a1.54 1.53 32.7 0 0-.41-1.85c-3.6-2.98-7.28-7.13-12.36-7.22q-5.37-.1-10.75-.02h-27c-9.79-1-13.36 1.32-20.02 7.81a1.13 1.12 53.3 0 0-.19 1.36q4.97 8.74 4.5 19.04Z"/><path fill="#406b44" d="M757.49 654.28q-7.18-1.09-13.99 1.27a1.22 1.22 0 0 1-1.49-.59c-.75-1.44-5.28-8.56-4.61-9.56a.51.5 39.1 0 1 .78-.08l3.9 3.87a1.15 1.15 0 0 0 1.35.2c10.49-5.57 20.7-15.9 28.54-24.78a3.2 3.19-68.7 0 1 2.46-1.08c6.53.13 10.26 2.17 15.92 4.78q1.67.78 2.74-.73 2.73-3.88 3.56-8.59.14-.81.58-.12c9.78 15.44 16.77 25.73 28.97 35.46a1.02 1.02 0 0 0 1.6-.45c2.62-7.13 2.04-18.74 1.29-26.22-.67-6.72-3.84-14.52-3.28-21.53q1.8-22.52 1.3-45.13-.17-7.78 1.25-15.72.34-1.89 2.26-2.04c1.97-.14 7.56 5.92 9.49 7.39a.78.77-41.3 0 0 .86.05c.85-.5.19-4.93.22-6.02a.65.64 86.1 0 1 .53-.61c2.95-.55 4.75 7.1 4.93 9.18 10.23 115.13-35.83 222.08-127.09 292.33q-.3.23-.55.16a.29.29 0 0 1-.14-.46c5.94-7.23 14.29-15.99 10.49-22.93q-1.26-2.29-3.04-.39-4.62 4.94-8.65 10.3c-4.77 6.35-10.99 10.53-17.75 14.25a1.08 1.08 0 0 0-.55.74c-1.79 8.19-8.64 18.53-15.71 22.51q-19.64 11.07-40.56 19.5-.54.21-.3-.32.21-.49.76-.88 7.19-5.16 12.65-12.11c7.93-10.09 33.89-15.85 30.36-33.26-1.88-9.29-3.73-16.65 2.12-23.99q12.52-15.75 25.41-31.2c8.38-10.05 14.34-22.74 19.49-34.68 2.61-6.05 5.03-18.17 2.23-24.1q-1.4-2.98-3.13-.17c-6.08 9.87-17.47 17.61-27.49 23.03q-1.7.92-3-.51c-5.89-6.48-9.85-9.27-18.54-10.94q-2.25-.44-4.07-1.82-4.87-3.69-9.51-7.58c-1.24-1.03-3.17-1.59-4.45-2.85a1.38 1.38 0 0 1-.41-.85c-.84-8.62-1.45-11.34-10.3-14.06q-2.11-.65-1.86-2.84l.47-4a1.01.98 25.3 0 0-.32-.85c-3.84-3.49-11.02-9.56-13.14-14.16a.8.8 0 0 1 .51-1.11c3.87-1.12 6.16-1.03 9.09 2.03 4.92 5.14 9.58 13.07 17.13 14.31a1.44 1.42 73.4 0 1 .84.46c5.01 5.4 7.87 11.33 14.07 13.85 5.39 2.18 11.55 7.81 13.73 13.26 1.03 2.58 4.01 11.88 6.1 13.1q2 1.16 3.63-.48c11.25-11.35 21.65-22.45 30.36-35.92q9.5-14.7 19.33-30.55.88-1.42.93-3.08.18-5.91.52-12.36c.17-3.1 1.38-6.43 1.6-9.81a.5.49 6.4 0 0-.42-.52Z"/><path fill="#f6f8ef" d="M935.74 612.87c-11.62-9.41-18.14-15.23-14.38-30.72.74-3.04 1.8-6.21 1.67-9.27q-.36-9.24-4.42-17.36-1.13-2.27.75-3.98c3.68-3.35 8.16-6.62 13.35-6.59q26.16.17 52.37.2 1.8 0 3.2 1.13l6.98 5.68q1.76 1.43.83 3.51c-2.57 5.77-5.1 12.36-4.3 18.78.59 4.72 2.42 10.03 2.56 14.06q.4 11.43-8.86 18.96-20.37 16.58-25.92 20.07c-3.15 1.99-5.19.02-8.23-2.27q-7.9-5.97-15.6-12.2Zm5.76-64.83q-3.44-.17-6.89-.15c-4.38.03-8.71 3.73-11.76 6.6a1.43 1.43 0 0 0-.39 1.46c1.73 5.67 3.91 9.9 3.83 16.55q-.03 5.35-1.12 10.55c-1.72 8.17-.71 14.39 5.04 20.7q10.84 9.32 22.2 17.94c2.27 1.72 4.13 3.98 7.08 1.84q5.18-3.75 22.23-17.3.8-.64 3.53-3.69c8.09-7.92 5.4-17.93 2.71-28.29q.86-9.01 4.15-16.32.78-1.73-.44-3.19c-7.06-8.48-12-7.06-21.93-7.01-6.35.38-12.82-.25-18.65.02q-4.79.22-9.59.29Z"/><path fill="#406b44" d="m72.25 545.79-.48.83q-.25.43-.26.93c-.12 5.43-.78 10.91 0 16.21q.55 3.73 1.24 7.45-.56.63-.58 1.57a.43.42 3.1 0 1-.48.42c-5.02-.58-9.52-1.44-13.68 1.18a.66.64-40.4 0 1-.75-.05q-.31-.25-.72-.33.47-10.3-4.5-19.04a1.13 1.12 53.3 0 1 .19-1.36c6.66-6.49 10.23-8.81 20.02-7.81Z"/><path fill="#a35a4b" d="M72.25 545.79h27q2.05 13.54.75 27.17l-13.5.33q-.76 1.23-.6 2.74.05.41-.14.04-2.29-4.51-7.57-3.39-.48.1-.95-.04l-4.49-1.43q-.69-3.72-1.24-7.45c-.78-5.3-.12-10.78 0-16.21q.01-.5.26-.93l.48-.83Zm5.46 10.71q-1 3.25 0 6.5l.73 4.21a.69.69 0 0 0 .59.58c4.91.74 10.26 1.22 14.11-2.58 3.69-3.64 3.55-10.37-1.58-12.83-4.15-1.98-7.8-1.42-13.51-.97a.49.49 0 0 0-.46.5l.12 4.59Z"/><path fill="#406b44" d="M99.25 545.79q5.38-.08 10.75.02c5.08.09 8.76 4.24 12.36 7.22a1.54 1.53 32.7 0 1 .41 1.85q-3.88 8.08-5.31 16.87-8.69 1.17-17.46 1.21 1.3-13.63-.75-27.17Z"/><path fill="#a35a4b" d="M969.74 547.73q.76 12.76.38 25.44c-.02.52-.21.65-.65.84q-.48.21.02.37l.51.16q-6.11 1.76-12.32.31c-.71-.16-1.1 0-1.64.4l-.01-.37a.39.39 0 0 0-.43-.38q-.63.04-1.18.39a1.3 1.29-57.6 0 1-.87.2c-3.4-.38-6.46.96-10.3.12-1.27-7.42-1.55-12.97-.61-24.78a.63.61-20.7 0 1 .18-.38l.28-.24q.33-.3-.1-.42-1.11-.29-1.5-1.35 4.8-.07 9.59-.29c5.83-.27 12.3.36 18.65-.02Zm-21.12 21.1 11.27.22a1.26 1.25 25.6 0 0 .83-.29q7.53-6.17 1.51-14.38a1.73 1.7 82 0 0-.77-.59q-5.06-1.99-10.69-1.12-2.95.45-2.93 3.43l.09 12.02a.71.71 0 0 0 .69.71Z"/><path fill="#406b44" d="m987.96 574.25-17.96.29-.51-.16q-.5-.16-.02-.37c.44-.19.63-.32.65-.84q.38-12.68-.38-25.44c9.93-.05 14.87-1.47 21.93 7.01q1.22 1.46.44 3.19-3.29 7.31-4.15 16.32Zm-46.46-26.21q.39 1.06 1.5 1.35.43.12.1.42l-.28.24a.63.61-20.7 0 0-.18.38c-.94 11.81-.66 17.36.61 24.78-3.24-.41-13.69-1.57-15.2-.23a.4.4 0 0 1-.63-.13l-1.13-2.35c.08-6.65-2.1-10.88-3.83-16.55a1.43 1.43 0 0 1 .39-1.46c3.05-2.87 7.38-6.57 11.76-6.6q3.45-.02 6.89.15Z"/><path fill="#fff" d="M449.24 566.85c-1.73-1.83 3.55-7.77 4.62-10.09 1.88-4.04 4.93-6.25 8.46-8.58a1.49 1.48 30.7 0 1 .92-.23c5.31.48 8.37 4.12 7.26 9.35-.78 3.63-.86 8.43-5.34 9.74q-6.43 1.88-13.39 1.08a4.1 4.09-18.3 0 1-2.53-1.27ZM77.71 563v-6.5l-.12-4.59a.49.49 0 0 1 .46-.5c5.71-.45 9.36-1.01 13.51.97 5.13 2.46 5.27 9.19 1.58 12.83-3.85 3.8-9.2 3.32-14.11 2.58a.69.69 0 0 1-.59-.58l-.73-4.21Zm6.34 2.04c10.78 1.93 8.94-14.05-1.6-10.21a.8.77-11.4 0 0-.52.76l.16 7.16q.04 1.94 1.96 2.29Zm864.57 3.79a.71.71 0 0 1-.69-.71l-.09-12.02q-.02-2.98 2.93-3.43 5.63-.87 10.69 1.12a1.73 1.7 82 0 1 .77.59q6.02 8.21-1.51 14.38a1.26 1.25 25.6 0 1-.83.29l-11.27-.22Zm11.03-11.76q-2.99-2.04-6.8-1.3a.97.97 0 0 0-.73.64q-1.32 3.93-.75 8.07a.92.9-81.4 0 0 .5.69c5.4 2.74 11.19.67 8.86-6.64a2.84 2.81 8.9 0 0-1.08-1.46Z"/><path fill="#a35a4b" d="M84.05 565.04q-1.92-.35-1.96-2.29l-.16-7.16a.8.77-11.4 0 1 .52-.76c10.54-3.84 12.38 12.14 1.6 10.21Zm875.6-7.97a2.84 2.81 8.9 0 1 1.08 1.46c2.33 7.31-3.46 9.38-8.86 6.64a.92.9-81.4 0 1-.5-.69q-.57-4.14.75-8.07a.97.97 0 0 1 .73-.64q3.81-.74 6.8 1.3Z"/><path fill="#60986c" d="M77.71 556.5v6.5q-1-3.25 0-6.5Zm-4.96 14.71 4.49 1.43q.47.14.95.04 5.28-1.12 7.57 3.39.19.37.14-.04-.16-1.51.6-2.74l-.46 14.21-.42 9.52q-.13 2.81-2.94 2.93-7.73.35-15.75-.57-4.67-.53-7.47 1.62c-7.93-8.98-5.12-16.28-2.92-27q.41.08.72.33a.66.64-40.4 0 0 .75.05c4.16-2.62 8.66-1.76 13.68-1.18a.43.42 3.1 0 0 .48-.42q.02-.94.58-1.57Zm-.034 8.413a1.36 1.36 0 0 0-1.365-1.355l-1.18.004a1.36 1.36 0 0 0-1.355 1.365l.048 13.64a1.36 1.36 0 0 0 1.365 1.355l1.18-.004a1.36 1.36 0 0 0 1.355-1.365l-.048-13.64Z"/><path fill="#030301" d="M117.46 571.75c2.97 11.08 6.02 20.62-2.46 29.04q-13.66-1.21-27.49-.74a.53.52-4 0 1-.55-.47c-.35-3.2.17-9.68-.92-12.08l.46-14.21 13.5-.33q8.77-.04 17.46-1.21Zm-21.71 22.71.62.05a1.22 1.19-63.7 0 0 .94-.33l4.06-3.84a1.03 1.02-27.6 0 0 .3-.94l-.71-3.65.47-2.02q.15-.6.46-.07c.44.74 5.44 14.97 9.02 10.57a1.55 1.54 50.9 0 0 .17-1.7q-3.07-5.84-5.59-11.87c-1.37-3.27-4.32-3.87-5.84-.16q-2.35 5.75-6.13 13.72a.36.36 0 0 0 .28.51q.92.1 1.95-.27Z"/><path fill="#60986c" d="m926.29 572.5 1.13 2.35a.4.4 0 0 0 .63.13c1.51-1.34 11.96-.18 15.2.23 3.84.84 6.9-.5 10.3-.12a1.3 1.29-57.6 0 0 .87-.2q.55-.35 1.18-.39a.39.39 0 0 1 .43.38l.01.37-.25 1-.03 20.47a.65.64 76.3 0 1-.34.57l-.31.18a.54.53 68.3 0 0-.26.62c1.05 3.68-5.14 3.68-7.85 3.66q-7.67-.06-15.34.08a1.01.99 16.7 0 0-.8.42q-.51.72-.65 1.5c-5.75-6.31-6.76-12.53-5.04-20.7q1.09-5.2 1.12-10.55Zm16.694 7.972a.8.8 0 0 0-.803-.797l-3.12.01a.8.8 0 0 0-.798.803l.053 15.18a.8.8 0 0 0 .803.797l3.12-.01a.8.8 0 0 0 .798-.803l-.053-15.18Z"/><path fill="#030301" d="M987.96 574.25c2.69 10.36 5.38 20.37-2.71 28.29q-3.53.01-7.02-.37c-6.82-.73-13.64-.38-20.47-.46a1.38 1.38 0 0 1-1.36-1.35l-.61-24.11.25-1c.54-.4.93-.56 1.64-.4q6.21 1.45 12.32-.31l17.96-.29Zm-15.1 10.99c1.21 3.01 2.82 14.19 8.6 10.76a.53.52 60.3 0 0 .19-.72q-4.07-7.06-7.12-14.61-.81-2.01-2.8-1.16c-1.19.5-7.27 13.9-8.51 16.15a.41.4 14.3 0 0 .36.6l2.71-.02a1.2 1.18-70.4 0 0 .93-.45q3.22-4.07 3.6-7.99.2-2.08 1.39-2.78a.46.45-25.6 0 1 .65.22Zm-.87 7.546a1.22 1.09 71.4 0 0 .643-1.504 1.22 1.09 71.4 0 0-1.422-.808 1.22 1.09 71.4 0 0-.644 1.504 1.22 1.09 71.4 0 0 1.422.808Z"/><path fill="#406b44" d="m955.79 576.25.61 24.11a1.38 1.38 0 0 0 1.36 1.35c6.83.08 13.65-.27 20.47.46q3.49.38 7.02.37-2.73 3.05-3.53 3.69-17.05 13.55-22.23 17.3c-2.95 2.14-4.81-.12-7.08-1.84q-11.36-8.62-22.2-17.94.14-.78.65-1.5a1.01.99 16.7 0 1 .8-.42q7.67-.14 15.34-.08c2.71.02 8.9.02 7.85-3.66a.54.53 68.3 0 1 .26-.62l.31-.18a.65.64 76.3 0 0 .34-.57l.03-20.47Z"/><path fill="#f6f8ef" d="m100.96 585.75-2.76 6.93a1.46 1.45 86.3 0 1-.63.72l-1.82 1.06q-1.03.37-1.95.27a.36.36 0 0 1-.28-.51q3.78-7.97 6.13-13.72c1.52-3.71 4.47-3.11 5.84.16q2.52 6.03 5.59 11.87a1.55 1.54 50.9 0 1-.17 1.7c-3.58 4.4-8.58-9.83-9.02-10.57q-.31-.53-.46.07l-.47 2.02Z"/><rect fill="#f6f8ef" x="-1.95" y="-8.18" transform="rotate(-.2 168040.774 -19986.596)" width="3.9" height="16.36" rx="1.36"/><path fill="#fff" d="M972.21 585.02q-1.19.7-1.39 2.78-.38 3.92-3.6 7.99a1.2 1.18-70.4 0 1-.93.45l-2.71.02a.41.4 14.3 0 1-.36-.6c1.24-2.25 7.32-15.65 8.51-16.15q1.99-.85 2.8 1.16 3.05 7.55 7.12 14.61a.53.52 60.3 0 1-.19.72c-5.78 3.43-7.39-7.75-8.6-10.76a.46.45-25.6 0 0-.65-.22Z"/><rect fill="#f6f8ef" x="-2.36" y="-8.39" transform="rotate(-.2 168939.8 -269182.066)" width="4.72" height="16.78" rx=".8"/><path fill="#fff" d="m100.96 585.75.71 3.65a1.03 1.02-27.6 0 1-.3.94l-4.06 3.84a1.22 1.19-63.7 0 1-.94.33l-.62-.05 1.82-1.06a1.46 1.45 86.3 0 0 .63-.72l2.76-6.93Z"/><path fill="#406b44" d="M86.04 587.5c1.09 2.4.57 8.88.92 12.08a.53.52-4 0 0 .55.47q13.83-.47 27.49.74-1.95 2.21-3.48 3.47-8.95 7.39-21.03 16.59c-1.97 1.5-3.17 2.69-5.58.77q-11.37-9.05-22.72-18.05-1.91-1.52-2.73-2.57 2.8-2.15 7.47-1.62 8.02.92 15.75.57 2.81-.12 2.94-2.93l.42-9.52Z"/><ellipse fill="#f6f8ef" transform="rotate(71.4 74.13 971.877)" rx="1.22" ry="1.09"/><path fill="#406b44" d="M560.82 640.29q-.83-2.71-2.29-3.6-4.48-2.75-16.06-7.76a.77.77 0 0 1-.47-.71v-4.01a1.16 1.14-69.1 0 0-.37-.85c-2.75-2.56-8.85-4.5-6.77-9.85a1.04 1.04 0 0 1 .66-.62q2.69-.84 4.47 1.34 4.22 5.16 8.32 10.4c3 3.85 9.84 5.44 14.42 6.35q2.53.5 1.61 2.91l-1.81 4.77a1.48 1.47-53.1 0 0 .19 1.39q4.94 6.67 9.51 13.53c2.47 3.71 4.88 5.68 9.26 4.61a1.27 1.23-78.9 0 0 .76-.53c1.76-2.71 6.58-8.77 6.11-11.85-.55-3.7-7.74-4.57-6.5-7.66 1.29-3.17 7.92-2.94 10.41-2.09a2.05 2.05 0 0 1 1.39 1.71c.66 5.43-1.78 12.83 5.88 14.21q6.52 1.17 12.92 3.49 2.52.9 4.1-1.25l3.65-4.98a1.7 1.7 0 0 1 2.37-.37c5.19 3.77 8.77-2.21 12.26-5.21q1.6-1.37 3.19.02c1.15 1.01 2.02 7.5 2.13 9.21.36 5.45-1.78 11.81-3.13 17.28q-.53 2.18-2.62 3c-4.42 1.73-9.16 2.39-13.58 4.52-7.1 3.43-14.84 3.09-22.52 2.6-3.29-.21-6.84.9-10.55-.12a1.27 1.25 83.3 0 1-.8-.64l-1.59-2.99a1.11 1.11 0 0 0-1.34-.54c-4.84 1.6-12.55 3.32-14.84 8.41-1.11 2.45-.62 5.78-.78 8.61a1.11 1.1 16.1 0 1-1.64.9c-2.43-1.34-4.67-2.88-7.57-3.29q-4.29-.59-8.57-1.21a1.4 1.37-14.6 0 1-.89-.51l-5.11-6.35q-1.38-1.71-3.57-1.61c-5.34.24-14.96 2.26-16.12-5.68a1.14 1.11 61.5 0 1 .25-.88c1.14-1.38 2.71-2.25 3.37-3.78 1.45-3.38-2.39-9.06-3.92-12.03a1.16 1.15 75 0 0-1.07-.62q-21.32.97-42.6.77c-5.13-.05-10.21 2.53-14.86 4.44-5.87 2.41-10.38-1.17-15.57-2.87q-.35-.12-.02-.27l2.54-1.16q.48-.22 1-.25 8.12-.47 15.77-3.3c5.75-2.13 8.75-7.96 10.19-13.6a2.65 2.65 0 0 1 1.21-1.62q4.12-2.44 8.3-4.87c4.93-2.86 6.15-4.27 7.19-9.67.94-4.89 7.67-.08 9.71.83q2.83 1.25 5.41-.45l6.68-4.41q2.5-1.66 4.27.76 4.39 6 8.41 12.03c4.21 6.34 12.5 5.41 16.53 10.73a1.37 1.36-61.8 0 1 .27.9c-.48 9.17-8.34 5.75-13.21 8.62q-3.79 2.23-.14 4.7 4.52 3.05 9.79 4.27c5.75 1.33 5.23-2.42 5.01-6.39a1.24 1.21-24.6 0 1 .36-.93q5.57-5.61 4.77-13.62a.72.71-7.1 0 1 .61-.78l5.16-.78a.58.58 0 0 0 .47-.75Zm159.55 23.68c-3.72-.23-23.21-4.92-17.06-12.71 5.04-6.37 12.41 3.22 16.51 3.98q9.9 1.82 15.21-6.31.27-.41.24.08c-.49 8.8-2.35 16.43-11.31 20.1a1.24 1.23 70 0 1-1.64-.77l-1.23-3.81a.81.8 82.6 0 0-.72-.56Z"/><rect fill="#fff" x="-.45" y="-7.6" transform="rotate(13.6 -2445.911 4043.771)" width=".9" height="15.2" rx=".26"/><path fill="#406b44" d="M1006.96 699.75q-.32 2.27-.44 2.76-24.69 99.99-85.98 181.54c-47.94 63.78-112.11 117.05-184.51 150.71q-29.41 13.67-42.81 18.5-7.85 2.84-40.57 12.29-29.58 8.54-56.4 12.18c-33.11 4.5-68.94 7.12-104.93 4.4-25.02-1.89-51.28-4.73-78.82-10.88q-16.17-3.62-43.94-12.28c-46.11-14.37-90.5-36.89-130.27-64.24-98.55-67.78-171.14-171.83-200-288.24q-.8-3.21-1.25-6.49 3.08-.61 5.46-.59 60.97.64 121.92.16a.68.68 0 0 1 .65.49q4.1 13.71 12.68 33.7c20.5 47.8 51.72 91.82 90.29 126.83 30.91 28.06 62 48.63 99.98 65.97 26.25 11.99 54.44 20.1 83.41 26.04q17.87 3.67 32.74 4.69 40.62 2.77 81.13-.61 10.09-.84 19.8-2.6c56.54-10.27 109.43-31.07 156.09-65.35 29.27-21.5 51.39-42.97 74.24-70.99 28.88-35.4 48.09-74.74 63.41-117.56a1.12 1.11-79.6 0 1 1.06-.74c42.3.87 84.73-.15 127.06.31Zm-115.2 49.61a.76.76 0 0 1 .98-.45l48.2 17.83a.76.76 0 0 0 .95-.4l2.74-5.95a.76.76 0 0 0-.43-1.03l-48.53-17.88a.76.76 0 0 1-.45-.97l4.92-13.64a.76.76 0 0 0-.36-.93l-5.37-2.91a.76.76 0 0 0-1.08.41l-13.76 36.9a.76.76 0 0 0 .49.99l5.96 1.86a.76.76 0 0 0 .95-.47l4.79-13.36Zm-785.07 22.45c7.98 7.09 20.78 5.36 25.81-3.93 2.89-5.33 2.51-14.78 2.93-21.32q.16-2.55 1.51-4.73 2.56-4.1 6.63-4.05c9.58.12 10.85 14.59 10.2 21.31a.7.69 7 0 0 .59.75l4.94.74a.65.64-79.4 0 0 .72-.5c2.12-9.89-.88-24.21-10.98-29.09q-3.25-1.57-5.34-1.4-15.7 1.33-16.44 17.22c-.36 7.74-.06 22.9-11.19 21.26-11.15-1.63-10.73-16.61-9.97-24.63a.69.68 6.9 0 0-.59-.75l-5.36-.74a.75.75 0 0 0-.83.56c-2.44 9.99-.69 22.15 7.37 29.3Zm67.35 24.5-45.16 25.2a.58.57-24.7 0 0-.26.7q1.2 3.29 3.42 6.02a.67.67 0 0 0 .85.16l44.88-24.92a.88.88 0 0 1 1.19.34l7.16 12.68a1.1 1.1 0 0 0 1.56.37l4.98-3.27a.68.68 0 0 0 .22-.91l-18.83-33.79a.52.52 0 0 0-.68-.22l-5.91 2.85a.58.58 0 0 0-.25.8l7.09 13.06a.69.68 61 0 1-.26.93Zm683.81 10.38c-2.01 24.75 28.63 42.91 49.19 27.44q12.51-9.42 13.38-26.59a1.33 1.32 4.3 0 0-1.2-1.39l-5.39-.48a1.09 1.08-87.9 0 0-1.18 1.1c.22 11.09-6.37 21.21-17.04 24.18-11.38 3.17-24.71-5.04-28.4-15.68-4.05-11.7 1.62-21.82 11.79-27.59a.49.48-33.7 0 0 .15-.72l-3.42-4.46q-1.16-1.52-2.73-.4c-8.65 6.19-14.29 13.89-15.15 24.59Zm-691.54 63.06c-1.91 15.48 13.19 31.43 28.82 26.41q4.4-1.41 13.46-8.66 12.41-9.93 24.72-19.97a.64.63-40.4 0 0 .08-.91l-4.25-4.92a.8.79-40 0 0-1.1-.09q-14.3 11.91-29.01 23.32c-11.81 9.16-27.51-.14-24.1-14.8.95-4.11 3.7-6.67 6.92-9.27q19.18-15.51 27.83-22.23a.65.64-37.5 0 0 .12-.89l-4.04-5.43a.69.68 52.4 0 0-.96-.13q-14.35 11.24-28.48 22.75c-5.4 4.4-9.22 8.4-10.01 14.82ZM854.9 896.3c-3.25-4.33-8.99-8-13.03-11.88a.6.6 0 0 1-.04-.82l16.72-20.27a.82.82 0 0 0-.02-1.06q-2.09-2.43-4.9-3.98a.76.76 0 0 0-.95.18l-17.19 20.49a.52.52 0 0 1-.74.06l-13.03-11.01a1.02 1.02 0 0 1-.13-1.43l18.87-22.86a.62.62 0 0 0-.07-.86l-4.83-4.24a.64.64 0 0 0-.92.07l-23.65 28.65a1.77 1.76-50.6 0 0 .24 2.49l45.19 37.26a.6.6 0 0 0 .84-.08l24.92-30.33a.76.76 0 0 0-.08-1.04l-4.72-4.19a.55.54 41 0 0-.78.05l-20.7 24.83a.64.64 0 0 1-1-.03Zm-578.78 33.96c6.36-19.79-8.68-31.9-23.65-43.88a.56.56 0 0 0-.77.08l-38.55 44.93a1.18 1.17 40.7 0 0 .13 1.66c7.68 6.54 16.68 16.14 26.86 18.58 16.11 3.84 30.95-5.72 35.98-21.37Zm492.39-.35q3.58.78 7.24 1.12 26.63 2.47 54.24 5.11 2.07.2.74-1.4l-38.56-46.05a.54.53 51.4 0 0-.73-.09l-5.59 4.05a.58.58 0 0 0-.1.85l26.52 31.48a1.25 1.11 58.2 0 1-.33 1.9q-.15.05-1.45-.09-29.73-3.23-59.89-6.31a.32.32 0 0 0-.35.36q.1.81.66 1.48 19.23 22.73 38.36 45.63a.88.88 0 0 0 1.17.16l3.93-2.7q2.13-1.46.47-3.44l-26.54-31.72q-.39-.47.21-.34Zm-478.68 51.74a.64.64 0 0 1-.22-.88l9.03-15.2a.64.64 0 0 1 .88-.22l22.91 13.54a.64.64 0 0 0 .86-.2l3.52-5.54a.64.64 0 0 0-.21-.9l-23.3-13.58a.64.64 0 0 1-.23-.88l8.94-14.99a.64.64 0 0 1 .87-.23l26.08 15.26a.64.64 0 0 0 .88-.24l3.17-5.49a.64.64 0 0 0-.22-.87l-32.92-19.51a.64.64 0 0 0-.88.22l-30.35 51.42a.64.64 0 0 0 .22.87l34.03 19.99a.64.64 0 0 0 .87-.21l3.35-5.45a.64.64 0 0 0-.22-.88l-27.06-16.03Zm453.14-3.22a.35.35 0 0 1-.42.5l-60.12-19.02a.35.35 0 0 0-.41.5l29.32 54.51a.35.35 0 0 0 .46.15l6.65-3.33a.35.35 0 0 0 .15-.48l-20.13-37.36a.35.35 0 0 1 .41-.5l59.71 18.52a.35.35 0 0 0 .42-.5l-29.35-54.73a.35.35 0 0 0-.5-.13l-6.34 3.98a.35.35 0 0 0-.12.46l20.27 37.43Zm-350.2 39.62q-.45 1.24-1 .03l-25.14-55.79q-.98-2.16-1.78.07-9.87 27.28-19.09 52.95c-.38 1.06-1.12 2.22-1.54 3.44a.59.59 0 0 0 .32.74l5.74 2.57a1.42 1.42 0 0 0 1.92-.81l13.53-37.61q.55-1.52 1.45-.18.31.46.87 1.66 12.05 26.09 24.65 53.14.67 1.44 1.21-.05l20.74-57.04a.49.49 0 0 0-.26-.62l-5.55-2.47a1.37 1.37 0 0 0-1.85.79l-14.22 39.18Zm279.26-9.32a31.01 31.01 0 0 0-31.01-31.01 31.01 31.01 0 0 0-31.01 31.01 31.01 31.01 0 0 0 31.01 31.01 31.01 31.01 0 0 0 31.01-31.01Zm-222.5 41.11a.81.81 0 0 0 .99-.65l8.78-50.79a.81.81 0 0 1 .94-.66l14.48 2.46a.81.81 0 0 0 .93-.65l1.05-5.84a.81.81 0 0 0-.66-.94l-38.5-6.63a.81.81 0 0 0-.94.71l-.65 6.06a.81.81 0 0 0 .67.89l14.15 2.39a.81.81 0 0 1 .66.94l-8.75 50.25a.81.81 0 0 0 .6.92l6.25 1.54Zm90.55-38.03c-8.89 26.82 14.67 49.66 41.04 39.77q1.46-.55 7.12-3.53a.6.59-24.6 0 0 .28-.74l-2.38-6.31a.5.5 0 0 0-.66-.29c-2.37.96-4.89 2.61-6.8 3.39-14.59 5.92-28.19-1.21-31.36-16.3-4.06-19.34 14.77-34.65 32.81-24.94a.57.57 0 0 0 .82-.32l2.24-6.52a.54.54 0 0 0-.28-.67c-16.49-7.7-36.85-1.55-42.83 16.46Z"/><path fill="#f6f8ef" d="m891.76 749.36-4.79 13.36a.76.76 0 0 1-.95.47l-5.96-1.86a.76.76 0 0 1-.49-.99l13.76-36.9a.76.76 0 0 1 1.08-.41l5.37 2.91a.76.76 0 0 1 .36.93l-4.92 13.64a.76.76 0 0 0 .45.97l48.53 17.88a.76.76 0 0 1 .43 1.03l-2.74 5.95a.76.76 0 0 1-.95.4l-48.2-17.83a.76.76 0 0 0-.98.45Zm-785.07 22.45c-8.06-7.15-9.81-19.31-7.37-29.3a.75.75 0 0 1 .83-.56l5.36.74a.69.68 6.9 0 1 .59.75c-.76 8.02-1.18 23 9.97 24.63 11.13 1.64 10.83-13.52 11.19-21.26q.74-15.89 16.44-17.22 2.09-.17 5.34 1.4c10.1 4.88 13.1 19.2 10.98 29.09a.65.64-79.4 0 1-.72.5l-4.94-.74a.7.69 7 0 1-.59-.75c.65-6.72-.62-21.19-10.2-21.31q-4.07-.05-6.63 4.05-1.35 2.18-1.51 4.73c-.42 6.54-.04 15.99-2.93 21.32-5.03 9.29-17.83 11.02-25.81 3.93Zm67.61 23.57-7.09-13.06a.58.58 0 0 1 .25-.8l5.91-2.85a.52.52 0 0 1 .68.22l18.83 33.79a.68.68 0 0 1-.22.91l-4.98 3.27a1.1 1.1 0 0 1-1.56-.37l-7.16-12.68a.88.88 0 0 0-1.19-.34l-44.88 24.92a.67.67 0 0 1-.85-.16q-2.22-2.73-3.42-6.02a.58.57-24.7 0 1 .26-.7l45.16-25.2a.69.68 61 0 0 .26-.93Zm732.74 38.75c-20.56 15.47-51.2-2.69-49.19-27.44.86-10.7 6.5-18.4 15.15-24.59q1.57-1.12 2.73.4l3.42 4.46a.49.48-33.7 0 1-.15.72c-10.17 5.77-15.84 15.89-11.79 27.59 3.69 10.64 17.02 18.85 28.4 15.68 10.67-2.97 17.26-13.09 17.04-24.18a1.09 1.08-87.9 0 1 1.18-1.1l5.39.48a1.33 1.32 4.3 0 1 1.2 1.39q-.87 17.17-13.38 26.59Zm-711.91 62.03c-15.63 5.02-30.73-10.93-28.82-26.41.79-6.42 4.61-10.42 10.01-14.82q14.13-11.51 28.48-22.75a.69.68 52.4 0 1 .96.13l4.04 5.43a.65.64-37.5 0 1-.12.89q-8.65 6.72-27.83 22.23c-3.22 2.6-5.97 5.16-6.92 9.27-3.41 14.66 12.29 23.96 24.1 14.8q14.71-11.41 29.01-23.32a.8.79-40 0 1 1.1.09l4.25 4.92a.64.63-40.4 0 1-.08.91Q221 877.57 208.59 887.5q-9.06 7.25-13.46 8.66Zm659.77.14a.64.64 0 0 0 1 .03l20.7-24.83a.55.54 41 0 1 .78-.05l4.72 4.19a.76.76 0 0 1 .08 1.04l-24.92 30.33a.6.6 0 0 1-.84.08l-45.19-37.26a1.77 1.76-50.6 0 1-.24-2.49l23.65-28.65a.64.64 0 0 1 .92-.07l4.83 4.24a.62.62 0 0 1 .07.86l-18.87 22.86a1.02 1.02 0 0 0 .13 1.43l13.03 11.01a.52.52 0 0 0 .74-.06l17.19-20.49a.76.76 0 0 1 .95-.18q2.81 1.55 4.9 3.98a.82.82 0 0 1 .02 1.06l-16.72 20.27a.6.6 0 0 0 .04.82c4.04 3.88 9.78 7.55 13.03 11.88Zm-602.43-9.92c14.97 11.98 30.01 24.09 23.65 43.88-5.03 15.65-19.87 25.21-35.98 21.37-10.18-2.44-19.18-12.04-26.86-18.58a1.18 1.17 40.7 0 1-.13-1.66l38.55-44.93a.56.56 0 0 1 .77-.08Zm13.16 46.96c9.74-14.81-.51-26.65-12.1-35.87a.61.6 39 0 0-.83.08L224 931.13a.58.57-48.4 0 0 .04.79c6.03 5.7 12.63 11.41 20.65 12.25 8.56.89 16.29-3.75 20.94-10.83Zm502.67-3.09 26.54 31.72q1.66 1.98-.47 3.44l-3.93 2.7a.88.88 0 0 1-1.17-.16q-19.13-22.9-38.36-45.63-.56-.67-.66-1.48a.32.32 0 0 1 .35-.36q30.16 3.08 59.89 6.31 1.3.14 1.45.09a1.25 1.11 58.2 0 0 .33-1.9l-26.52-31.48a.58.58 0 0 1 .1-.85l5.59-4.05a.54.53 51.4 0 1 .73.09l38.56 46.05q1.33 1.6-.74 1.4-27.61-2.64-54.24-5.11-3.66-.34-7.24-1.12-.6-.13-.21.34Z"/><path fill="#406b44" d="M253.53 897.47c11.59 9.22 21.84 21.06 12.1 35.87-4.65 7.08-12.38 11.72-20.94 10.83-8.02-.84-14.62-6.55-20.65-12.25a.58.57-48.4 0 1-.04-.79l28.7-33.58a.61.6 39 0 1 .83-.08Z"/><path fill="#f6f8ef" d="m289.83 981.65 27.06 16.03a.64.64 0 0 1 .22.88l-3.35 5.45a.64.64 0 0 1-.87.21l-34.03-19.99a.64.64 0 0 1-.22-.87l30.35-51.42a.64.64 0 0 1 .88-.22l32.92 19.51a.64.64 0 0 1 .22.87l-3.17 5.49a.64.64 0 0 1-.88.24l-26.08-15.26a.64.64 0 0 0-.87.23l-8.94 14.99a.64.64 0 0 0 .23.88l23.3 13.58a.64.64 0 0 1 .21.9l-3.52 5.54a.64.64 0 0 1-.86.2l-22.91-13.54a.64.64 0 0 0-.88.22l-9.03 15.2a.64.64 0 0 0 .22.88Zm453.14-3.22L722.7 941a.35.35 0 0 1 .12-.46l6.34-3.98a.35.35 0 0 1 .5.13l29.35 54.73a.35.35 0 0 1-.42.5l-59.71-18.52a.35.35 0 0 0-.41.5l20.13 37.36a.35.35 0 0 1-.15.48l-6.65 3.33a.35.35 0 0 1-.46-.15l-29.32-54.51a.35.35 0 0 1 .41-.5l60.12 19.02a.35.35 0 0 0 .42-.5Zm-350.2 39.62 14.22-39.18a1.37 1.37 0 0 1 1.85-.79l5.55 2.47a.49.49 0 0 1 .26.62l-20.74 57.04q-.54 1.49-1.21.05-12.6-27.05-24.65-53.14-.56-1.2-.87-1.66-.9-1.34-1.45.18l-13.53 37.61a1.42 1.42 0 0 1-1.92.81l-5.74-2.57a.59.59 0 0 1-.32-.74c.42-1.22 1.16-2.38 1.54-3.44q9.22-25.67 19.09-52.95.8-2.23 1.78-.07l25.14 55.79q.55 1.21 1-.03Zm279.26-9.32a31.01 31.01 0 0 1-31.01 31.01 31.01 31.01 0 0 1-31.01-31.01 31.01 31.01 0 0 1 31.01-31.01 31.01 31.01 0 0 1 31.01 31.01Zm-20.842 20.828a23.17 22.68 64.3 0 0 10.388-30.713 23.17 22.68 64.3 0 0-30.484-11.043 23.17 22.68 64.3 0 0-10.388 30.713 23.17 22.68 64.3 0 0 30.484 11.043Z"/><ellipse fill="#406b44" transform="rotate(64.3 -481.86 1014.383)" rx="23.17" ry="22.68"/><path fill="#f6f8ef" d="m449.53 1049.84-6.25-1.54a.81.81 0 0 1-.6-.92l8.75-50.25a.81.81 0 0 0-.66-.94l-14.15-2.39a.81.81 0 0 1-.67-.89l.65-6.06a.81.81 0 0 1 .94-.71l38.5 6.63a.81.81 0 0 1 .66.94l-1.05 5.84a.81.81 0 0 1-.93.65l-14.48-2.46a.81.81 0 0 0-.94.66l-8.78 50.79a.81.81 0 0 1-.99.65Zm131.59 1.74c-26.37 9.89-49.93-12.95-41.04-39.77 5.98-18.01 26.34-24.16 42.83-16.46a.54.54 0 0 1 .28.67l-2.24 6.52a.57.57 0 0 1-.82.32c-18.04-9.71-36.87 5.6-32.81 24.94 3.17 15.09 16.77 22.22 31.36 16.3 1.91-.78 4.43-2.43 6.8-3.39a.5.5 0 0 1 .66.29l2.38 6.31a.6.59-24.6 0 1-.28.74q-5.66 2.98-7.12 3.53Z"/></svg>